solid OpenSCAD_Model
  facet normal 0.125342 0.992114 -0
    outer loop
      vertex -7.93833 137.626 2.25
      vertex -8.81047 137.736 4.25
      vertex -7.93833 137.626 4.25
    endloop
  endfacet
  facet normal 0.125342 0.992114 0
    outer loop
      vertex -8.81047 137.736 4.25
      vertex -7.93833 137.626 2.25
      vertex -8.81047 137.736 2.25
    endloop
  endfacet
  facet normal 0.951057 -0.309017 0
    outer loop
      vertex -2.74156 6.67313 4.25
      vertex -2.46992 7.50917 2.25
      vertex -2.46992 7.50917 4.25
    endloop
  endfacet
  facet normal 0.951057 -0.309017 0
    outer loop
      vertex -2.46992 7.50917 2.25
      vertex -2.74156 6.67313 4.25
      vertex -2.74156 6.67313 2.25
    endloop
  endfacet
  facet normal 0.951057 0.309016 0
    outer loop
      vertex -2.46992 132.491 4.25
      vertex -2.74156 133.327 2.25
      vertex -2.74156 133.327 4.25
    endloop
  endfacet
  facet normal 0.951057 0.309016 0
    outer loop
      vertex -2.74156 133.327 2.25
      vertex -2.46992 132.491 4.25
      vertex -2.46992 132.491 2.25
    endloop
  endfacet
  facet normal -0.904826 -0.425781 0
    outer loop
      vertex -71.8841 5.87772 2.25
      vertex -72.2584 6.67313 4.25
      vertex -72.2584 6.67313 2.25
    endloop
  endfacet
  facet normal -0.904826 -0.425781 0
    outer loop
      vertex -72.2584 6.67313 4.25
      vertex -71.8841 5.87772 2.25
      vertex -71.8841 5.87772 4.25
    endloop
  endfacet
  facet normal -1 0 0
    outer loop
      vertex -72.75 9.25 2.25
      vertex -72.75 130.75 4.25
      vertex -72.75 130.75 2.25
    endloop
  endfacet
  facet normal -1 -0 0
    outer loop
      vertex -72.75 130.75 4.25
      vertex -72.75 9.25 2.25
      vertex -72.75 9.25 4.25
    endloop
  endfacet
  facet normal 0.904825 0.425783 0
    outer loop
      vertex -2.74156 133.327 4.25
      vertex -3.11585 134.122 2.25
      vertex -3.11585 134.122 4.25
    endloop
  endfacet
  facet normal 0.904825 0.425783 0
    outer loop
      vertex -3.11585 134.122 2.25
      vertex -2.74156 133.327 4.25
      vertex -2.74156 133.327 2.25
    endloop
  endfacet
  facet normal 0 1 -0
    outer loop
      vertex -8.81047 137.736 2.25
      vertex -66.1895 137.736 4.25
      vertex -8.81047 137.736 4.25
    endloop
  endfacet
  facet normal 0 1 0
    outer loop
      vertex -66.1895 137.736 4.25
      vertex -8.81047 137.736 2.25
      vertex -66.1895 137.736 2.25
    endloop
  endfacet
  facet normal -0.998027 0.0627922 0
    outer loop
      vertex -72.75 130.75 2.25
      vertex -72.6948 131.627 4.25
      vertex -72.6948 131.627 2.25
    endloop
  endfacet
  facet normal -0.998027 0.0627922 0
    outer loop
      vertex -72.6948 131.627 4.25
      vertex -72.75 130.75 2.25
      vertex -72.75 130.75 4.25
    endloop
  endfacet
  facet normal 0 -1 0
    outer loop
      vertex -66.1895 2.26381 2.25
      vertex -8.81047 2.26381 4.25
      vertex -66.1895 2.26381 4.25
    endloop
  endfacet
  facet normal 0 -1 -0
    outer loop
      vertex -8.81047 2.26381 4.25
      vertex -66.1895 2.26381 2.25
      vertex -8.81047 2.26381 2.25
    endloop
  endfacet
  facet normal 0.684547 -0.728969 0
    outer loop
      vertex -4.78803 3.85641 2.25
      vertex -4.14722 4.45817 4.25
      vertex -4.78803 3.85641 4.25
    endloop
  endfacet
  facet normal 0.684547 -0.728969 0
    outer loop
      vertex -4.14722 4.45817 4.25
      vertex -4.78803 3.85641 2.25
      vertex -4.14722 4.45817 2.25
    endloop
  endfacet
  facet normal 0.982287 -0.187381 0
    outer loop
      vertex -2.46992 7.50917 4.25
      vertex -2.3052 8.37267 2.25
      vertex -2.3052 8.37267 4.25
    endloop
  endfacet
  facet normal 0.982287 -0.187381 0
    outer loop
      vertex -2.3052 8.37267 2.25
      vertex -2.46992 7.50917 4.25
      vertex -2.46992 7.50917 2.25
    endloop
  endfacet
  facet normal 0.998027 -0.0627913 0
    outer loop
      vertex -2.3052 8.37267 4.25
      vertex -2.25 9.25 2.25
      vertex -2.25 9.25 4.25
    endloop
  endfacet
  facet normal 0.998027 -0.0627913 0
    outer loop
      vertex -2.25 9.25 2.25
      vertex -2.3052 8.37267 4.25
      vertex -2.3052 8.37267 2.25
    endloop
  endfacet
  facet normal 0.770509 0.63743 0
    outer loop
      vertex -3.58688 134.865 4.25
      vertex -4.14722 135.542 2.25
      vertex -4.14722 135.542 4.25
    endloop
  endfacet
  facet normal 0.770509 0.63743 0
    outer loop
      vertex -4.14722 135.542 2.25
      vertex -3.58688 134.865 4.25
      vertex -3.58688 134.865 2.25
    endloop
  endfacet
  facet normal -0.982288 -0.187379 0
    outer loop
      vertex -72.5301 7.50917 2.25
      vertex -72.6948 8.37267 4.25
      vertex -72.6948 8.37267 2.25
    endloop
  endfacet
  facet normal -0.982288 -0.187379 0
    outer loop
      vertex -72.6948 8.37267 4.25
      vertex -72.5301 7.50917 2.25
      vertex -72.5301 7.50917 4.25
    endloop
  endfacet
  facet normal -0.998027 -0.0627924 0
    outer loop
      vertex -72.6948 8.37267 2.25
      vertex -72.75 9.25 4.25
      vertex -72.75 9.25 2.25
    endloop
  endfacet
  facet normal -0.998027 -0.0627924 0
    outer loop
      vertex -72.75 9.25 4.25
      vertex -72.6948 8.37267 2.25
      vertex -72.6948 8.37267 4.25
    endloop
  endfacet
  facet normal -0.951057 -0.309015 0
    outer loop
      vertex -72.2584 6.67313 2.25
      vertex -72.5301 7.50917 4.25
      vertex -72.5301 7.50917 2.25
    endloop
  endfacet
  facet normal -0.951057 -0.309015 0
    outer loop
      vertex -72.5301 7.50917 4.25
      vertex -72.2584 6.67313 2.25
      vertex -72.2584 6.67313 4.25
    endloop
  endfacet
  facet normal -0.587784 -0.809018 0
    outer loop
      vertex -70.212 3.85641 2.25
      vertex -69.5008 3.33971 4.25
      vertex -70.212 3.85641 4.25
    endloop
  endfacet
  facet normal -0.587784 -0.809018 -0
    outer loop
      vertex -69.5008 3.33971 4.25
      vertex -70.212 3.85641 2.25
      vertex -69.5008 3.33971 2.25
    endloop
  endfacet
  facet normal 0.587785 -0.809017 0
    outer loop
      vertex -5.49921 3.33971 2.25
      vertex -4.78803 3.85641 4.25
      vertex -5.49921 3.33971 4.25
    endloop
  endfacet
  facet normal 0.587785 -0.809017 0
    outer loop
      vertex -4.78803 3.85641 4.25
      vertex -5.49921 3.33971 2.25
      vertex -4.78803 3.85641 2.25
    endloop
  endfacet
  facet normal 0.904827 -0.425779 0
    outer loop
      vertex -3.11585 5.87772 4.25
      vertex -2.74156 6.67313 2.25
      vertex -2.74156 6.67313 4.25
    endloop
  endfacet
  facet normal 0.904827 -0.425779 0
    outer loop
      vertex -2.74156 6.67313 2.25
      vertex -3.11585 5.87772 4.25
      vertex -3.11585 5.87772 2.25
    endloop
  endfacet
  facet normal 1 -0 0
    outer loop
      vertex -2.25 9.25 4.25
      vertex -2.25 130.75 2.25
      vertex -2.25 130.75 4.25
    endloop
  endfacet
  facet normal 1 0 0
    outer loop
      vertex -2.25 130.75 2.25
      vertex -2.25 9.25 4.25
      vertex -2.25 9.25 2.25
    endloop
  endfacet
  facet normal 0.982287 0.187381 0
    outer loop
      vertex -2.3052 131.627 4.25
      vertex -2.46992 132.491 2.25
      vertex -2.46992 132.491 4.25
    endloop
  endfacet
  facet normal 0.982287 0.187381 0
    outer loop
      vertex -2.46992 132.491 2.25
      vertex -2.3052 131.627 4.25
      vertex -2.3052 131.627 2.25
    endloop
  endfacet
  facet normal 0.998027 0.0627911 0
    outer loop
      vertex -2.25 130.75 4.25
      vertex -2.3052 131.627 2.25
      vertex -2.3052 131.627 4.25
    endloop
  endfacet
  facet normal 0.998027 0.0627911 0
    outer loop
      vertex -2.3052 131.627 2.25
      vertex -2.25 130.75 4.25
      vertex -2.25 130.75 2.25
    endloop
  endfacet
  facet normal 0.844332 0.535821 0
    outer loop
      vertex -3.11585 134.122 4.25
      vertex -3.58688 134.865 2.25
      vertex -3.58688 134.865 4.25
    endloop
  endfacet
  facet normal 0.844332 0.535821 0
    outer loop
      vertex -3.58688 134.865 2.25
      vertex -3.11585 134.122 4.25
      vertex -3.11585 134.122 2.25
    endloop
  endfacet
  facet normal 0.368127 0.929776 -0
    outer loop
      vertex -6.26955 137.084 2.25
      vertex -7.08688 137.407 4.25
      vertex -6.26955 137.084 4.25
    endloop
  endfacet
  facet normal 0.368127 0.929776 0
    outer loop
      vertex -7.08688 137.407 4.25
      vertex -6.26955 137.084 2.25
      vertex -7.08688 137.407 2.25
    endloop
  endfacet
  facet normal -0.684544 0.728972 0
    outer loop
      vertex -70.212 136.144 2.25
      vertex -70.8528 135.542 4.25
      vertex -70.212 136.144 4.25
    endloop
  endfacet
  facet normal -0.684544 0.728972 0
    outer loop
      vertex -70.8528 135.542 4.25
      vertex -70.212 136.144 2.25
      vertex -70.8528 135.542 2.25
    endloop
  endfacet
  facet normal -0.770516 -0.63742 0
    outer loop
      vertex -70.8528 4.45817 2.25
      vertex -71.4131 5.1355 4.25
      vertex -71.4131 5.1355 2.25
    endloop
  endfacet
  facet normal -0.770516 -0.63742 0
    outer loop
      vertex -71.4131 5.1355 4.25
      vertex -70.8528 4.45817 2.25
      vertex -70.8528 4.45817 4.25
    endloop
  endfacet
  facet normal 0.770514 -0.637424 0
    outer loop
      vertex -4.14722 4.45817 4.25
      vertex -3.58688 5.1355 2.25
      vertex -3.58688 5.1355 4.25
    endloop
  endfacet
  facet normal 0.770514 -0.637424 0
    outer loop
      vertex -3.58688 5.1355 2.25
      vertex -4.14722 4.45817 4.25
      vertex -4.14722 4.45817 2.25
    endloop
  endfacet
  facet normal 0.844328 -0.535827 0
    outer loop
      vertex -3.58688 5.1355 4.25
      vertex -3.11585 5.87772 2.25
      vertex -3.11585 5.87772 4.25
    endloop
  endfacet
  facet normal 0.844328 -0.535827 0
    outer loop
      vertex -3.11585 5.87772 2.25
      vertex -3.58688 5.1355 4.25
      vertex -3.58688 5.1355 2.25
    endloop
  endfacet
  facet normal 0.587789 0.809014 -0
    outer loop
      vertex -4.78803 136.144 2.25
      vertex -5.49921 136.66 4.25
      vertex -4.78803 136.144 4.25
    endloop
  endfacet
  facet normal 0.587789 0.809014 0
    outer loop
      vertex -5.49921 136.66 4.25
      vertex -4.78803 136.144 2.25
      vertex -5.49921 136.66 2.25
    endloop
  endfacet
  facet normal 0.684546 0.72897 -0
    outer loop
      vertex -4.14722 135.542 2.25
      vertex -4.78803 136.144 4.25
      vertex -4.14722 135.542 4.25
    endloop
  endfacet
  facet normal 0.684546 0.72897 0
    outer loop
      vertex -4.78803 136.144 4.25
      vertex -4.14722 135.542 2.25
      vertex -4.78803 136.144 2.25
    endloop
  endfacet
  facet normal 0.481752 0.876307 -0
    outer loop
      vertex -5.49921 136.66 2.25
      vertex -6.26955 137.084 4.25
      vertex -5.49921 136.66 4.25
    endloop
  endfacet
  facet normal 0.481752 0.876307 0
    outer loop
      vertex -6.26955 137.084 4.25
      vertex -5.49921 136.66 2.25
      vertex -6.26955 137.084 2.25
    endloop
  endfacet
  facet normal 0.248687 0.968584 -0
    outer loop
      vertex -7.08688 137.407 2.25
      vertex -7.93833 137.626 4.25
      vertex -7.08688 137.407 4.25
    endloop
  endfacet
  facet normal 0.248687 0.968584 0
    outer loop
      vertex -7.93833 137.626 4.25
      vertex -7.08688 137.407 2.25
      vertex -7.93833 137.626 2.25
    endloop
  endfacet
  facet normal -0.368126 0.929776 0
    outer loop
      vertex -67.9131 137.407 2.25
      vertex -68.7305 137.084 4.25
      vertex -67.9131 137.407 4.25
    endloop
  endfacet
  facet normal -0.368126 0.929776 0
    outer loop
      vertex -68.7305 137.084 4.25
      vertex -67.9131 137.407 2.25
      vertex -68.7305 137.084 2.25
    endloop
  endfacet
  facet normal -0.951057 0.309014 0
    outer loop
      vertex -72.5301 132.491 2.25
      vertex -72.2584 133.327 4.25
      vertex -72.2584 133.327 2.25
    endloop
  endfacet
  facet normal -0.951057 0.309014 0
    outer loop
      vertex -72.2584 133.327 4.25
      vertex -72.5301 132.491 2.25
      vertex -72.5301 132.491 4.25
    endloop
  endfacet
  facet normal -0.904824 0.425785 0
    outer loop
      vertex -72.2584 133.327 2.25
      vertex -71.8841 134.122 4.25
      vertex -71.8841 134.122 2.25
    endloop
  endfacet
  facet normal -0.904824 0.425785 0
    outer loop
      vertex -71.8841 134.122 4.25
      vertex -72.2584 133.327 2.25
      vertex -72.2584 133.327 4.25
    endloop
  endfacet
  facet normal -0.684545 -0.72897 0
    outer loop
      vertex -70.8528 4.45817 2.25
      vertex -70.212 3.85641 4.25
      vertex -70.8528 4.45817 4.25
    endloop
  endfacet
  facet normal -0.684545 -0.72897 -0
    outer loop
      vertex -70.212 3.85641 4.25
      vertex -70.8528 4.45817 2.25
      vertex -70.212 3.85641 2.25
    endloop
  endfacet
  facet normal -0.844326 -0.53583 0
    outer loop
      vertex -71.4131 5.1355 2.25
      vertex -71.8841 5.87772 4.25
      vertex -71.8841 5.87772 2.25
    endloop
  endfacet
  facet normal -0.844326 -0.53583 0
    outer loop
      vertex -71.8841 5.87772 4.25
      vertex -71.4131 5.1355 2.25
      vertex -71.4131 5.1355 4.25
    endloop
  endfacet
  facet normal 0 0 -1
    outer loop
      vertex -2.25 130.75 2.25
      vertex -16.0365 126.391 2.25
      vertex -15.75 127.273 2.25
    endloop
  endfacet
  facet normal 0 0 -1
    outer loop
      vertex -2.25 130.75 2.25
      vertex -16.3229 125.509 2.25
      vertex -16.0365 126.391 2.25
    endloop
  endfacet
  facet normal 0 0 -1
    outer loop
      vertex -2.25 130.75 2.25
      vertex -17.8229 124.42 2.25
      vertex -16.3229 125.509 2.25
    endloop
  endfacet
  facet normal 0 0 -1
    outer loop
      vertex -14 38.3 2.25
      vertex -19.677 124.42 2.25
      vertex -17.8229 124.42 2.25
    endloop
  endfacet
  facet normal 0 0 -1
    outer loop
      vertex -61 38.3 2.25
      vertex -19.677 124.42 2.25
      vertex -14 38.3 2.25
    endloop
  endfacet
  facet normal -0 0 -1
    outer loop
      vertex -19.677 124.42 2.25
      vertex -61 38.3 2.25
      vertex -21.177 125.509 2.25
    endloop
  endfacet
  facet normal 0 0 -1
    outer loop
      vertex -72.75 130.75 2.25
      vertex -21.177 125.509 2.25
      vertex -61 38.3 2.25
    endloop
  endfacet
  facet normal 0 0 -1
    outer loop
      vertex -14 11.3 2.25
      vertex -2.25 9.25 2.25
      vertex -2.3052 8.37267 2.25
    endloop
  endfacet
  facet normal 0 0 -1
    outer loop
      vertex -2.25 9.25 2.25
      vertex -14 38.3 2.25
      vertex -2.25 130.75 2.25
    endloop
  endfacet
  facet normal 0 0 -1
    outer loop
      vertex -14 11.3 2.25
      vertex -2.3052 8.37267 2.25
      vertex -2.46992 7.50917 2.25
    endloop
  endfacet
  facet normal 0 0 -1
    outer loop
      vertex -17.8229 124.42 2.25
      vertex -2.25 130.75 2.25
      vertex -14 38.3 2.25
    endloop
  endfacet
  facet normal 0 0 -1
    outer loop
      vertex -14 11.3 2.25
      vertex -2.46992 7.50917 2.25
      vertex -2.74156 6.67313 2.25
    endloop
  endfacet
  facet normal 0 0 -1
    outer loop
      vertex -16.0365 128.154 2.25
      vertex -2.25 130.75 2.25
      vertex -15.75 127.273 2.25
    endloop
  endfacet
  facet normal 0 0 -1
    outer loop
      vertex -14 11.3 2.25
      vertex -2.74156 6.67313 2.25
      vertex -3.11585 5.87772 2.25
    endloop
  endfacet
  facet normal -0 0 -1
    outer loop
      vertex -2.25 130.75 2.25
      vertex -16.0365 128.154 2.25
      vertex -2.3052 131.627 2.25
    endloop
  endfacet
  facet normal 0 0 -1
    outer loop
      vertex -14 11.3 2.25
      vertex -3.11585 5.87772 2.25
      vertex -3.58688 5.1355 2.25
    endloop
  endfacet
  facet normal -0 0 -1
    outer loop
      vertex -2.3052 131.627 2.25
      vertex -16.0365 128.154 2.25
      vertex -2.46992 132.491 2.25
    endloop
  endfacet
  facet normal 0 0 -1
    outer loop
      vertex -14 11.3 2.25
      vertex -3.58688 5.1355 2.25
      vertex -4.14722 4.45817 2.25
    endloop
  endfacet
  facet normal -0 0 -1
    outer loop
      vertex -2.46992 132.491 2.25
      vertex -16.0365 128.154 2.25
      vertex -2.74156 133.327 2.25
    endloop
  endfacet
  facet normal 0 0 -1
    outer loop
      vertex -14 11.3 2.25
      vertex -4.14722 4.45817 2.25
      vertex -4.78803 3.85641 2.25
    endloop
  endfacet
  facet normal -0 0 -1
    outer loop
      vertex -2.74156 133.327 2.25
      vertex -16.0365 128.154 2.25
      vertex -3.11585 134.122 2.25
    endloop
  endfacet
  facet normal 0 0 -1
    outer loop
      vertex -14 11.3 2.25
      vertex -4.78803 3.85641 2.25
      vertex -5.49921 3.33971 2.25
    endloop
  endfacet
  facet normal -0 0 -1
    outer loop
      vertex -3.11585 134.122 2.25
      vertex -16.0365 128.154 2.25
      vertex -3.58688 134.865 2.25
    endloop
  endfacet
  facet normal 0 0 -1
    outer loop
      vertex -14 11.3 2.25
      vertex -5.49921 3.33971 2.25
      vertex -6.26955 2.91621 2.25
    endloop
  endfacet
  facet normal -0 0 -1
    outer loop
      vertex -3.58688 134.865 2.25
      vertex -16.0365 128.154 2.25
      vertex -4.14722 135.542 2.25
    endloop
  endfacet
  facet normal 0 0 -1
    outer loop
      vertex -14 11.3 2.25
      vertex -6.26955 2.91621 2.25
      vertex -7.08688 2.5926 2.25
    endloop
  endfacet
  facet normal -0 0 -1
    outer loop
      vertex -4.14722 135.542 2.25
      vertex -16.0365 128.154 2.25
      vertex -4.78803 136.144 2.25
    endloop
  endfacet
  facet normal 0 0 -1
    outer loop
      vertex -14 11.3 2.25
      vertex -7.08688 2.5926 2.25
      vertex -7.93833 2.37399 2.25
    endloop
  endfacet
  facet normal -0 0 -1
    outer loop
      vertex -4.78803 136.144 2.25
      vertex -16.0365 128.154 2.25
      vertex -5.49921 136.66 2.25
    endloop
  endfacet
  facet normal 0 0 -1
    outer loop
      vertex -14 11.3 2.25
      vertex -7.93833 2.37399 2.25
      vertex -8.81047 2.26381 2.25
    endloop
  endfacet
  facet normal -0 0 -1
    outer loop
      vertex -5.49921 136.66 2.25
      vertex -16.0365 128.154 2.25
      vertex -6.26955 137.084 2.25
    endloop
  endfacet
  facet normal 0 0 -1
    outer loop
      vertex -2.25 9.25 2.25
      vertex -14 11.3 2.25
      vertex -14 38.3 2.25
    endloop
  endfacet
  facet normal 0 0 -1
    outer loop
      vertex -8.81047 2.26381 2.25
      vertex -61 11.3 2.25
      vertex -14 11.3 2.25
    endloop
  endfacet
  facet normal 0 0 -1
    outer loop
      vertex -67.0617 2.37399 2.25
      vertex -61 11.3 2.25
      vertex -66.1895 2.26381 2.25
    endloop
  endfacet
  facet normal 0 0 -1
    outer loop
      vertex -66.1895 2.26381 2.25
      vertex -61 11.3 2.25
      vertex -8.81047 2.26381 2.25
    endloop
  endfacet
  facet normal -0 0 -1
    outer loop
      vertex -6.26955 137.084 2.25
      vertex -16.0365 128.154 2.25
      vertex -7.08688 137.407 2.25
    endloop
  endfacet
  facet normal -0 0 -1
    outer loop
      vertex -7.08688 137.407 2.25
      vertex -16.0365 128.154 2.25
      vertex -7.93833 137.626 2.25
    endloop
  endfacet
  facet normal -0 0 -1
    outer loop
      vertex -7.93833 137.626 2.25
      vertex -16.0365 128.154 2.25
      vertex -8.81047 137.736 2.25
    endloop
  endfacet
  facet normal 0 0 -1
    outer loop
      vertex -16.3229 129.036 2.25
      vertex -8.81047 137.736 2.25
      vertex -16.0365 128.154 2.25
    endloop
  endfacet
  facet normal 0 0 -1
    outer loop
      vertex -17.8229 130.126 2.25
      vertex -8.81047 137.736 2.25
      vertex -16.3229 129.036 2.25
    endloop
  endfacet
  facet normal 0 0 -1
    outer loop
      vertex -19.677 130.126 2.25
      vertex -8.81047 137.736 2.25
      vertex -17.8229 130.126 2.25
    endloop
  endfacet
  facet normal 0 -0 -1
    outer loop
      vertex -66.1895 137.736 2.25
      vertex -21.177 125.509 2.25
      vertex -72.75 130.75 2.25
    endloop
  endfacet
  facet normal 0 0 -1
    outer loop
      vertex -19.677 130.126 2.25
      vertex -66.1895 137.736 2.25
      vertex -8.81047 137.736 2.25
    endloop
  endfacet
  facet normal 0 0 -1
    outer loop
      vertex -21.177 129.036 2.25
      vertex -66.1895 137.736 2.25
      vertex -19.677 130.126 2.25
    endloop
  endfacet
  facet normal 0 0 -1
    outer loop
      vertex -21.177 125.509 2.25
      vertex -66.1895 137.736 2.25
      vertex -21.75 127.273 2.25
    endloop
  endfacet
  facet normal -0 0 -1
    outer loop
      vertex -61 11.3 2.25
      vertex -72.75 9.25 2.25
      vertex -61 38.3 2.25
    endloop
  endfacet
  facet normal 0 0 -1
    outer loop
      vertex -67.9131 2.5926 2.25
      vertex -61 11.3 2.25
      vertex -67.0617 2.37399 2.25
    endloop
  endfacet
  facet normal 0 0 -1
    outer loop
      vertex -72.75 130.75 2.25
      vertex -61 38.3 2.25
      vertex -72.75 9.25 2.25
    endloop
  endfacet
  facet normal 0 0 -1
    outer loop
      vertex -68.7305 2.91621 2.25
      vertex -61 11.3 2.25
      vertex -67.9131 2.5926 2.25
    endloop
  endfacet
  facet normal 0 0 -1
    outer loop
      vertex -21.75 127.273 2.25
      vertex -66.1895 137.736 2.25
      vertex -21.177 129.036 2.25
    endloop
  endfacet
  facet normal 0 0 -1
    outer loop
      vertex -69.5008 3.33971 2.25
      vertex -61 11.3 2.25
      vertex -68.7305 2.91621 2.25
    endloop
  endfacet
  facet normal 0 0 -1
    outer loop
      vertex -66.1895 137.736 2.25
      vertex -72.75 130.75 2.25
      vertex -67.0617 137.626 2.25
    endloop
  endfacet
  facet normal 0 0 -1
    outer loop
      vertex -70.212 3.85641 2.25
      vertex -61 11.3 2.25
      vertex -69.5008 3.33971 2.25
    endloop
  endfacet
  facet normal 0 0 -1
    outer loop
      vertex -67.0617 137.626 2.25
      vertex -72.75 130.75 2.25
      vertex -67.9131 137.407 2.25
    endloop
  endfacet
  facet normal 0 0 -1
    outer loop
      vertex -70.8528 4.45817 2.25
      vertex -61 11.3 2.25
      vertex -70.212 3.85641 2.25
    endloop
  endfacet
  facet normal 0 0 -1
    outer loop
      vertex -67.9131 137.407 2.25
      vertex -72.75 130.75 2.25
      vertex -68.7305 137.084 2.25
    endloop
  endfacet
  facet normal 0 0 -1
    outer loop
      vertex -71.4131 5.1355 2.25
      vertex -61 11.3 2.25
      vertex -70.8528 4.45817 2.25
    endloop
  endfacet
  facet normal 0 0 -1
    outer loop
      vertex -68.7305 137.084 2.25
      vertex -72.75 130.75 2.25
      vertex -69.5008 136.66 2.25
    endloop
  endfacet
  facet normal 0 0 -1
    outer loop
      vertex -71.8841 5.87772 2.25
      vertex -61 11.3 2.25
      vertex -71.4131 5.1355 2.25
    endloop
  endfacet
  facet normal 0 0 -1
    outer loop
      vertex -69.5008 136.66 2.25
      vertex -72.75 130.75 2.25
      vertex -70.212 136.144 2.25
    endloop
  endfacet
  facet normal 0 0 -1
    outer loop
      vertex -72.2584 6.67313 2.25
      vertex -61 11.3 2.25
      vertex -71.8841 5.87772 2.25
    endloop
  endfacet
  facet normal 0 0 -1
    outer loop
      vertex -70.212 136.144 2.25
      vertex -72.75 130.75 2.25
      vertex -70.8528 135.542 2.25
    endloop
  endfacet
  facet normal 0 0 -1
    outer loop
      vertex -72.5301 7.50917 2.25
      vertex -61 11.3 2.25
      vertex -72.2584 6.67313 2.25
    endloop
  endfacet
  facet normal 0 0 -1
    outer loop
      vertex -70.8528 135.542 2.25
      vertex -72.75 130.75 2.25
      vertex -71.4131 134.865 2.25
    endloop
  endfacet
  facet normal 0 0 -1
    outer loop
      vertex -72.6948 8.37267 2.25
      vertex -61 11.3 2.25
      vertex -72.5301 7.50917 2.25
    endloop
  endfacet
  facet normal 0 0 -1
    outer loop
      vertex -71.4131 134.865 2.25
      vertex -72.75 130.75 2.25
      vertex -71.8841 134.122 2.25
    endloop
  endfacet
  facet normal 0 0 -1
    outer loop
      vertex -61 11.3 2.25
      vertex -72.6948 8.37267 2.25
      vertex -72.75 9.25 2.25
    endloop
  endfacet
  facet normal 0 0 -1
    outer loop
      vertex -71.8841 134.122 2.25
      vertex -72.75 130.75 2.25
      vertex -72.2584 133.327 2.25
    endloop
  endfacet
  facet normal 0 0 -1
    outer loop
      vertex -72.2584 133.327 2.25
      vertex -72.75 130.75 2.25
      vertex -72.5301 132.491 2.25
    endloop
  endfacet
  facet normal 0 0 -1
    outer loop
      vertex -72.5301 132.491 2.25
      vertex -72.75 130.75 2.25
      vertex -72.6948 131.627 2.25
    endloop
  endfacet
  facet normal -0.982288 0.187379 0
    outer loop
      vertex -72.6948 131.627 2.25
      vertex -72.5301 132.491 4.25
      vertex -72.5301 132.491 2.25
    endloop
  endfacet
  facet normal -0.982288 0.187379 0
    outer loop
      vertex -72.5301 132.491 4.25
      vertex -72.6948 131.627 2.25
      vertex -72.6948 131.627 4.25
    endloop
  endfacet
  facet normal -0.84433 0.535823 0
    outer loop
      vertex -71.8841 134.122 2.25
      vertex -71.4131 134.865 4.25
      vertex -71.4131 134.865 2.25
    endloop
  endfacet
  facet normal -0.84433 0.535823 0
    outer loop
      vertex -71.4131 134.865 4.25
      vertex -71.8841 134.122 2.25
      vertex -71.8841 134.122 4.25
    endloop
  endfacet
  facet normal -0.770511 0.637426 0
    outer loop
      vertex -71.4131 134.865 2.25
      vertex -70.8528 135.542 4.25
      vertex -70.8528 135.542 2.25
    endloop
  endfacet
  facet normal -0.770511 0.637426 0
    outer loop
      vertex -70.8528 135.542 4.25
      vertex -71.4131 134.865 2.25
      vertex -71.4131 134.865 4.25
    endloop
  endfacet
  facet normal -0.587789 0.809014 0
    outer loop
      vertex -69.5008 136.66 2.25
      vertex -70.212 136.144 4.25
      vertex -69.5008 136.66 4.25
    endloop
  endfacet
  facet normal -0.587789 0.809014 0
    outer loop
      vertex -70.212 136.144 4.25
      vertex -69.5008 136.66 2.25
      vertex -70.212 136.144 2.25
    endloop
  endfacet
  facet normal -0.481752 0.876307 0
    outer loop
      vertex -68.7305 137.084 2.25
      vertex -69.5008 136.66 4.25
      vertex -68.7305 137.084 4.25
    endloop
  endfacet
  facet normal -0.481752 0.876307 0
    outer loop
      vertex -69.5008 136.66 4.25
      vertex -68.7305 137.084 2.25
      vertex -69.5008 136.66 2.25
    endloop
  endfacet
  facet normal -0.248688 0.968584 0
    outer loop
      vertex -67.0617 137.626 2.25
      vertex -67.9131 137.407 4.25
      vertex -67.0617 137.626 4.25
    endloop
  endfacet
  facet normal -0.248688 0.968584 0
    outer loop
      vertex -67.9131 137.407 4.25
      vertex -67.0617 137.626 2.25
      vertex -67.9131 137.407 2.25
    endloop
  endfacet
  facet normal -0.125341 0.992114 0
    outer loop
      vertex -66.1895 137.736 2.25
      vertex -67.0617 137.626 4.25
      vertex -66.1895 137.736 4.25
    endloop
  endfacet
  facet normal -0.125341 0.992114 0
    outer loop
      vertex -67.0617 137.626 4.25
      vertex -66.1895 137.736 2.25
      vertex -67.0617 137.626 2.25
    endloop
  endfacet
  facet normal -0.368124 -0.929777 0
    outer loop
      vertex -68.7305 2.91621 2.25
      vertex -67.9131 2.5926 4.25
      vertex -68.7305 2.91621 4.25
    endloop
  endfacet
  facet normal -0.368124 -0.929777 -0
    outer loop
      vertex -67.9131 2.5926 4.25
      vertex -68.7305 2.91621 2.25
      vertex -67.9131 2.5926 2.25
    endloop
  endfacet
  facet normal -0.24869 -0.968583 0
    outer loop
      vertex -67.9131 2.5926 2.25
      vertex -67.0617 2.37399 4.25
      vertex -67.9131 2.5926 4.25
    endloop
  endfacet
  facet normal -0.24869 -0.968583 -0
    outer loop
      vertex -67.0617 2.37399 4.25
      vertex -67.9131 2.5926 2.25
      vertex -67.0617 2.37399 2.25
    endloop
  endfacet
  facet normal -0.481754 -0.876306 0
    outer loop
      vertex -69.5008 3.33971 2.25
      vertex -68.7305 2.91621 4.25
      vertex -69.5008 3.33971 4.25
    endloop
  endfacet
  facet normal -0.481754 -0.876306 -0
    outer loop
      vertex -68.7305 2.91621 4.25
      vertex -69.5008 3.33971 2.25
      vertex -68.7305 2.91621 2.25
    endloop
  endfacet
  facet normal -0.125334 -0.992115 0
    outer loop
      vertex -67.0617 2.37399 2.25
      vertex -66.1895 2.26381 4.25
      vertex -67.0617 2.37399 4.25
    endloop
  endfacet
  facet normal -0.125334 -0.992115 -0
    outer loop
      vertex -66.1895 2.26381 4.25
      vertex -67.0617 2.37399 2.25
      vertex -66.1895 2.26381 2.25
    endloop
  endfacet
  facet normal 0.248689 -0.968583 0
    outer loop
      vertex -7.93833 2.37399 2.25
      vertex -7.08688 2.5926 4.25
      vertex -7.93833 2.37399 4.25
    endloop
  endfacet
  facet normal 0.248689 -0.968583 0
    outer loop
      vertex -7.08688 2.5926 4.25
      vertex -7.93833 2.37399 2.25
      vertex -7.08688 2.5926 2.25
    endloop
  endfacet
  facet normal 0.125334 -0.992115 0
    outer loop
      vertex -8.81047 2.26381 2.25
      vertex -7.93833 2.37399 4.25
      vertex -8.81047 2.26381 4.25
    endloop
  endfacet
  facet normal 0.125334 -0.992115 0
    outer loop
      vertex -7.93833 2.37399 4.25
      vertex -8.81047 2.26381 2.25
      vertex -7.93833 2.37399 2.25
    endloop
  endfacet
  facet normal 0.368125 -0.929776 0
    outer loop
      vertex -7.08688 2.5926 2.25
      vertex -6.26955 2.91621 4.25
      vertex -7.08688 2.5926 4.25
    endloop
  endfacet
  facet normal 0.368125 -0.929776 0
    outer loop
      vertex -6.26955 2.91621 4.25
      vertex -7.08688 2.5926 2.25
      vertex -6.26955 2.91621 2.25
    endloop
  endfacet
  facet normal 0.481754 -0.876306 0
    outer loop
      vertex -6.26955 2.91621 2.25
      vertex -5.49921 3.33971 4.25
      vertex -6.26955 2.91621 4.25
    endloop
  endfacet
  facet normal 0.481754 -0.876306 0
    outer loop
      vertex -5.49921 3.33971 4.25
      vertex -6.26955 2.91621 2.25
      vertex -5.49921 3.33971 2.25
    endloop
  endfacet
  facet normal 0 0 1
    outer loop
      vertex -16.3229 129.036 4.25
      vertex -2.25 130.75 4.25
      vertex -2.3052 131.627 4.25
    endloop
  endfacet
  facet normal 0 0 1
    outer loop
      vertex -2.25 130.75 4.25
      vertex -14 38.3 4.25
      vertex -2.25 9.25 4.25
    endloop
  endfacet
  facet normal 0 0 1
    outer loop
      vertex -16.3229 129.036 4.25
      vertex -2.3052 131.627 4.25
      vertex -2.46992 132.491 4.25
    endloop
  endfacet
  facet normal -0 0 1
    outer loop
      vertex -14 11.3 4.25
      vertex -2.25 9.25 4.25
      vertex -14 38.3 4.25
    endloop
  endfacet
  facet normal 0 0 1
    outer loop
      vertex -16.3229 129.036 4.25
      vertex -2.46992 132.491 4.25
      vertex -2.74156 133.327 4.25
    endloop
  endfacet
  facet normal 0 0 1
    outer loop
      vertex -2.25 9.25 4.25
      vertex -14 11.3 4.25
      vertex -2.3052 8.37267 4.25
    endloop
  endfacet
  facet normal 0 0 1
    outer loop
      vertex -16.3229 129.036 4.25
      vertex -2.74156 133.327 4.25
      vertex -3.11585 134.122 4.25
    endloop
  endfacet
  facet normal 0 0 1
    outer loop
      vertex -2.3052 8.37267 4.25
      vertex -14 11.3 4.25
      vertex -2.46992 7.50917 4.25
    endloop
  endfacet
  facet normal 0 0 1
    outer loop
      vertex -16.3229 129.036 4.25
      vertex -3.11585 134.122 4.25
      vertex -3.58688 134.865 4.25
    endloop
  endfacet
  facet normal 0 0 1
    outer loop
      vertex -2.46992 7.50917 4.25
      vertex -14 11.3 4.25
      vertex -2.74156 6.67313 4.25
    endloop
  endfacet
  facet normal 0 0 1
    outer loop
      vertex -16.3229 129.036 4.25
      vertex -3.58688 134.865 4.25
      vertex -4.14722 135.542 4.25
    endloop
  endfacet
  facet normal 0 0 1
    outer loop
      vertex -2.74156 6.67313 4.25
      vertex -14 11.3 4.25
      vertex -3.11585 5.87772 4.25
    endloop
  endfacet
  facet normal 0 0 1
    outer loop
      vertex -16.3229 129.036 4.25
      vertex -4.14722 135.542 4.25
      vertex -4.78803 136.144 4.25
    endloop
  endfacet
  facet normal 0 0 1
    outer loop
      vertex -3.11585 5.87772 4.25
      vertex -14 11.3 4.25
      vertex -3.58688 5.1355 4.25
    endloop
  endfacet
  facet normal 0 0 1
    outer loop
      vertex -16.3229 129.036 4.25
      vertex -4.78803 136.144 4.25
      vertex -5.49921 136.66 4.25
    endloop
  endfacet
  facet normal 0 0 1
    outer loop
      vertex -3.58688 5.1355 4.25
      vertex -14 11.3 4.25
      vertex -4.14722 4.45817 4.25
    endloop
  endfacet
  facet normal 0 0 1
    outer loop
      vertex -16.3229 129.036 4.25
      vertex -5.49921 136.66 4.25
      vertex -6.26955 137.084 4.25
    endloop
  endfacet
  facet normal 0 0 1
    outer loop
      vertex -4.14722 4.45817 4.25
      vertex -14 11.3 4.25
      vertex -4.78803 3.85641 4.25
    endloop
  endfacet
  facet normal 0 0 1
    outer loop
      vertex -16.3229 129.036 4.25
      vertex -6.26955 137.084 4.25
      vertex -7.08688 137.407 4.25
    endloop
  endfacet
  facet normal 0 0 1
    outer loop
      vertex -4.78803 3.85641 4.25
      vertex -14 11.3 4.25
      vertex -5.49921 3.33971 4.25
    endloop
  endfacet
  facet normal 0 0 1
    outer loop
      vertex -16.3229 129.036 4.25
      vertex -7.08688 137.407 4.25
      vertex -7.93833 137.626 4.25
    endloop
  endfacet
  facet normal 0 0 1
    outer loop
      vertex -5.49921 3.33971 4.25
      vertex -14 11.3 4.25
      vertex -6.26955 2.91621 4.25
    endloop
  endfacet
  facet normal 0 0 1
    outer loop
      vertex -16.3229 129.036 4.25
      vertex -7.93833 137.626 4.25
      vertex -8.81047 137.736 4.25
    endloop
  endfacet
  facet normal 0 0 1
    outer loop
      vertex -6.26955 2.91621 4.25
      vertex -14 11.3 4.25
      vertex -7.08688 2.5926 4.25
    endloop
  endfacet
  facet normal 0 0 1
    outer loop
      vertex -7.08688 2.5926 4.25
      vertex -14 11.3 4.25
      vertex -7.93833 2.37399 4.25
    endloop
  endfacet
  facet normal 0 0 1
    outer loop
      vertex -2.25 130.75 4.25
      vertex -15.75 127.273 4.25
      vertex -15.8073 127.096 4.25
    endloop
  endfacet
  facet normal 0 0 1
    outer loop
      vertex -2.25 130.75 4.25
      vertex -15.8073 127.449 4.25
      vertex -15.75 127.273 4.25
    endloop
  endfacet
  facet normal 0 0 1
    outer loop
      vertex -2.25 130.75 4.25
      vertex -16.3229 129.036 4.25
      vertex -15.8073 127.449 4.25
    endloop
  endfacet
  facet normal 0 0 1
    outer loop
      vertex -8.81047 137.736 4.25
      vertex -17.8229 130.126 4.25
      vertex -16.3229 129.036 4.25
    endloop
  endfacet
  facet normal 0 0 1
    outer loop
      vertex -8.81047 137.736 4.25
      vertex -19.677 130.126 4.25
      vertex -17.8229 130.126 4.25
    endloop
  endfacet
  facet normal 0 0 1
    outer loop
      vertex -66.1895 137.736 4.25
      vertex -21.75 127.273 4.25
      vertex -21.177 129.036 4.25
    endloop
  endfacet
  facet normal 0 0 1
    outer loop
      vertex -21.75 127.273 4.25
      vertex -72.75 130.75 4.25
      vertex -61 38.3 4.25
    endloop
  endfacet
  facet normal 0 0 1
    outer loop
      vertex -21.75 127.273 4.25
      vertex -66.1895 137.736 4.25
      vertex -72.75 130.75 4.25
    endloop
  endfacet
  facet normal 0 0 1
    outer loop
      vertex -19.677 130.126 4.25
      vertex -66.1895 137.736 4.25
      vertex -21.177 129.036 4.25
    endloop
  endfacet
  facet normal -0 0 1
    outer loop
      vertex -66.1895 137.736 4.25
      vertex -19.677 130.126 4.25
      vertex -8.81047 137.736 4.25
    endloop
  endfacet
  facet normal 0 0 1
    outer loop
      vertex -7.93833 2.37399 4.25
      vertex -14 11.3 4.25
      vertex -8.81047 2.26381 4.25
    endloop
  endfacet
  facet normal -0 0 1
    outer loop
      vertex -61 11.3 4.25
      vertex -8.81047 2.26381 4.25
      vertex -14 11.3 4.25
    endloop
  endfacet
  facet normal 0 0 1
    outer loop
      vertex -61 11.3 4.25
      vertex -66.1895 2.26381 4.25
      vertex -8.81047 2.26381 4.25
    endloop
  endfacet
  facet normal 0 0 1
    outer loop
      vertex -72.75 9.25 4.25
      vertex -61 38.3 4.25
      vertex -72.75 130.75 4.25
    endloop
  endfacet
  facet normal 0 0 1
    outer loop
      vertex -72.75 130.75 4.25
      vertex -66.1895 137.736 4.25
      vertex -67.0617 137.626 4.25
    endloop
  endfacet
  facet normal 0 0 1
    outer loop
      vertex -61 38.3 4.25
      vertex -72.75 9.25 4.25
      vertex -61 11.3 4.25
    endloop
  endfacet
  facet normal 0 0 1
    outer loop
      vertex -72.75 130.75 4.25
      vertex -67.0617 137.626 4.25
      vertex -67.9131 137.407 4.25
    endloop
  endfacet
  facet normal 0 -0 1
    outer loop
      vertex -72.6948 8.37267 4.25
      vertex -61 11.3 4.25
      vertex -72.75 9.25 4.25
    endloop
  endfacet
  facet normal 0 0 1
    outer loop
      vertex -72.75 130.75 4.25
      vertex -67.9131 137.407 4.25
      vertex -68.7305 137.084 4.25
    endloop
  endfacet
  facet normal 0 0 1
    outer loop
      vertex -61 11.3 4.25
      vertex -67.0617 2.37399 4.25
      vertex -66.1895 2.26381 4.25
    endloop
  endfacet
  facet normal 0 0 1
    outer loop
      vertex -72.75 130.75 4.25
      vertex -68.7305 137.084 4.25
      vertex -69.5008 136.66 4.25
    endloop
  endfacet
  facet normal 0 0 1
    outer loop
      vertex -61 11.3 4.25
      vertex -67.9131 2.5926 4.25
      vertex -67.0617 2.37399 4.25
    endloop
  endfacet
  facet normal 0 0 1
    outer loop
      vertex -72.75 130.75 4.25
      vertex -69.5008 136.66 4.25
      vertex -70.212 136.144 4.25
    endloop
  endfacet
  facet normal 0 0 1
    outer loop
      vertex -61 11.3 4.25
      vertex -68.7305 2.91621 4.25
      vertex -67.9131 2.5926 4.25
    endloop
  endfacet
  facet normal 0 0 1
    outer loop
      vertex -72.75 130.75 4.25
      vertex -70.212 136.144 4.25
      vertex -70.8528 135.542 4.25
    endloop
  endfacet
  facet normal 0 0 1
    outer loop
      vertex -61 11.3 4.25
      vertex -69.5008 3.33971 4.25
      vertex -68.7305 2.91621 4.25
    endloop
  endfacet
  facet normal 0 0 1
    outer loop
      vertex -72.75 130.75 4.25
      vertex -70.8528 135.542 4.25
      vertex -71.4131 134.865 4.25
    endloop
  endfacet
  facet normal 0 0 1
    outer loop
      vertex -61 11.3 4.25
      vertex -70.212 3.85641 4.25
      vertex -69.5008 3.33971 4.25
    endloop
  endfacet
  facet normal 0 0 1
    outer loop
      vertex -72.75 130.75 4.25
      vertex -71.4131 134.865 4.25
      vertex -71.8841 134.122 4.25
    endloop
  endfacet
  facet normal 0 0 1
    outer loop
      vertex -61 11.3 4.25
      vertex -70.8528 4.45817 4.25
      vertex -70.212 3.85641 4.25
    endloop
  endfacet
  facet normal 0 0 1
    outer loop
      vertex -72.75 130.75 4.25
      vertex -71.8841 134.122 4.25
      vertex -72.2584 133.327 4.25
    endloop
  endfacet
  facet normal 0 0 1
    outer loop
      vertex -61 11.3 4.25
      vertex -71.4131 5.1355 4.25
      vertex -70.8528 4.45817 4.25
    endloop
  endfacet
  facet normal 0 0 1
    outer loop
      vertex -72.75 130.75 4.25
      vertex -72.2584 133.327 4.25
      vertex -72.5301 132.491 4.25
    endloop
  endfacet
  facet normal 0 0 1
    outer loop
      vertex -61 11.3 4.25
      vertex -71.8841 5.87772 4.25
      vertex -71.4131 5.1355 4.25
    endloop
  endfacet
  facet normal 0 0 1
    outer loop
      vertex -72.75 130.75 4.25
      vertex -72.5301 132.491 4.25
      vertex -72.6948 131.627 4.25
    endloop
  endfacet
  facet normal 0 0 1
    outer loop
      vertex -61 11.3 4.25
      vertex -72.2584 6.67313 4.25
      vertex -71.8841 5.87772 4.25
    endloop
  endfacet
  facet normal 0 0 1
    outer loop
      vertex -61 11.3 4.25
      vertex -72.5301 7.50917 4.25
      vertex -72.2584 6.67313 4.25
    endloop
  endfacet
  facet normal 0 0 1
    outer loop
      vertex -61 11.3 4.25
      vertex -72.6948 8.37267 4.25
      vertex -72.5301 7.50917 4.25
    endloop
  endfacet
  facet normal 0 0 1
    outer loop
      vertex -2.25 130.75 4.25
      vertex -15.8073 127.096 4.25
      vertex -16.3229 125.509 4.25
    endloop
  endfacet
  facet normal 0 0 1
    outer loop
      vertex -2.25 130.75 4.25
      vertex -16.3229 125.509 4.25
      vertex -17.8229 124.42 4.25
    endloop
  endfacet
  facet normal 0 0 1
    outer loop
      vertex -2.25 130.75 4.25
      vertex -17.8229 124.42 4.25
      vertex -14 38.3 4.25
    endloop
  endfacet
  facet normal -0 0 1
    outer loop
      vertex -19.677 124.42 4.25
      vertex -14 38.3 4.25
      vertex -17.8229 124.42 4.25
    endloop
  endfacet
  facet normal 0 0 1
    outer loop
      vertex -61 38.3 4.25
      vertex -19.677 124.42 4.25
      vertex -21.177 125.509 4.25
    endloop
  endfacet
  facet normal 0 0 1
    outer loop
      vertex -61 38.3 4.25
      vertex -21.177 125.509 4.25
      vertex -21.75 127.273 4.25
    endloop
  endfacet
  facet normal 0 0 1
    outer loop
      vertex -19.677 124.42 4.25
      vertex -61 38.3 4.25
      vertex -14 38.3 4.25
    endloop
  endfacet
  facet normal 0.951056 -0.309017 0
    outer loop
      vertex -21.75 127.273 4.25
      vertex -21.177 129.036 2.25
      vertex -21.177 129.036 4.25
    endloop
  endfacet
  facet normal 0.951056 -0.309017 0
    outer loop
      vertex -21.177 129.036 2.25
      vertex -21.75 127.273 4.25
      vertex -21.75 127.273 2.25
    endloop
  endfacet
  facet normal 0.587785 -0.809017 0
    outer loop
      vertex -21.177 129.036 2.25
      vertex -19.677 130.126 4.25
      vertex -21.177 129.036 4.25
    endloop
  endfacet
  facet normal 0.587785 -0.809017 0
    outer loop
      vertex -19.677 130.126 4.25
      vertex -21.177 129.036 2.25
      vertex -19.677 130.126 2.25
    endloop
  endfacet
  facet normal -0.951057 0.309015 0
    outer loop
      vertex -16.3229 125.509 4.25
      vertex -16.0365 126.391 2.25
      vertex -16.3229 125.509 2.25
    endloop
  endfacet
  facet normal -0.951056 0.309017 1.03782e-06
    outer loop
      vertex -16.0365 126.391 2.25
      vertex -16.3229 125.509 4.25
      vertex -15.8073 127.096 4.25
    endloop
  endfacet
  facet normal 0 -1 0
    outer loop
      vertex -19.677 130.126 2.25
      vertex -17.8229 130.126 4.25
      vertex -19.677 130.126 4.25
    endloop
  endfacet
  facet normal 0 -1 -0
    outer loop
      vertex -17.8229 130.126 4.25
      vertex -19.677 130.126 2.25
      vertex -17.8229 130.126 2.25
    endloop
  endfacet
  facet normal 0 1 -0
    outer loop
      vertex -17.8229 124.42 2.25
      vertex -19.677 124.42 4.25
      vertex -17.8229 124.42 4.25
    endloop
  endfacet
  facet normal 0 1 0
    outer loop
      vertex -19.677 124.42 4.25
      vertex -17.8229 124.42 2.25
      vertex -19.677 124.42 2.25
    endloop
  endfacet
  facet normal 0.587785 0.809017 -0
    outer loop
      vertex -19.677 124.42 2.25
      vertex -21.177 125.509 4.25
      vertex -19.677 124.42 4.25
    endloop
  endfacet
  facet normal 0.587785 0.809017 0
    outer loop
      vertex -21.177 125.509 4.25
      vertex -19.677 124.42 2.25
      vertex -21.177 125.509 2.25
    endloop
  endfacet
  facet normal 0.951056 0.309017 0
    outer loop
      vertex -21.177 125.509 4.25
      vertex -21.75 127.273 2.25
      vertex -21.75 127.273 4.25
    endloop
  endfacet
  facet normal 0.951056 0.309017 0
    outer loop
      vertex -21.75 127.273 2.25
      vertex -21.177 125.509 4.25
      vertex -21.177 125.509 2.25
    endloop
  endfacet
  facet normal -0.951057 -0.309015 0
    outer loop
      vertex -16.0365 128.154 2.25
      vertex -16.3229 129.036 4.25
      vertex -16.3229 129.036 2.25
    endloop
  endfacet
  facet normal -0.951056 -0.309017 1.03782e-06
    outer loop
      vertex -16.3229 129.036 4.25
      vertex -16.0365 128.154 2.25
      vertex -15.8073 127.449 4.25
    endloop
  endfacet
  facet normal -0.587785 -0.809017 0
    outer loop
      vertex -17.8229 130.126 2.25
      vertex -16.3229 129.036 4.25
      vertex -17.8229 130.126 4.25
    endloop
  endfacet
  facet normal -0.587785 -0.809017 -0
    outer loop
      vertex -16.3229 129.036 4.25
      vertex -17.8229 130.126 2.25
      vertex -16.3229 129.036 2.25
    endloop
  endfacet
  facet normal -0.951056 -0.309018 5.62224e-07
    outer loop
      vertex -15.75 127.273 2.25
      vertex -15.8073 127.449 4.25
      vertex -16.0365 128.154 2.25
    endloop
  endfacet
  facet normal -0.951058 -0.309013 0
    outer loop
      vertex -15.8073 127.449 4.25
      vertex -15.75 127.273 2.25
      vertex -15.75 127.273 4.25
    endloop
  endfacet
  facet normal -0.951058 0.309013 0
    outer loop
      vertex -15.75 127.273 2.25
      vertex -15.8073 127.096 4.25
      vertex -15.75 127.273 4.25
    endloop
  endfacet
  facet normal -0.951056 0.309018 5.62224e-07
    outer loop
      vertex -15.8073 127.096 4.25
      vertex -15.75 127.273 2.25
      vertex -16.0365 126.391 2.25
    endloop
  endfacet
  facet normal -0.587785 0.809017 0
    outer loop
      vertex -16.3229 125.509 2.25
      vertex -17.8229 124.42 4.25
      vertex -16.3229 125.509 4.25
    endloop
  endfacet
  facet normal -0.587785 0.809017 0
    outer loop
      vertex -17.8229 124.42 4.25
      vertex -16.3229 125.509 2.25
      vertex -17.8229 124.42 2.25
    endloop
  endfacet
  facet normal -1 0 4.76837e-07
    outer loop
      vertex -14 11.3 2.25
      vertex -14 38.3 4.25
      vertex -14 38.3 2.25
    endloop
  endfacet
  facet normal -1 0 4.76837e-07
    outer loop
      vertex -14 38.3 4.25
      vertex -14 11.3 2.25
      vertex -14 11.3 4.25
    endloop
  endfacet
  facet normal 1 -0 0
    outer loop
      vertex -61 11.3 4.25
      vertex -61 38.3 2.25
      vertex -61 38.3 4.25
    endloop
  endfacet
  facet normal 1 0 0
    outer loop
      vertex -61 38.3 2.25
      vertex -61 11.3 4.25
      vertex -61 11.3 2.25
    endloop
  endfacet
  facet normal 0 1 -0
    outer loop
      vertex -14 11.3 2.25
      vertex -61 11.3 4.25
      vertex -14 11.3 4.25
    endloop
  endfacet
  facet normal 0 1 0
    outer loop
      vertex -61 11.3 4.25
      vertex -14 11.3 2.25
      vertex -61 11.3 2.25
    endloop
  endfacet
  facet normal 0 -1 0
    outer loop
      vertex -61 38.3 2.25
      vertex -14 38.3 4.25
      vertex -61 38.3 4.25
    endloop
  endfacet
  facet normal 0 -1 0
    outer loop
      vertex -14 38.3 4.25
      vertex -61 38.3 2.25
      vertex -14 38.3 2.25
    endloop
  endfacet
endsolid OpenSCAD_Model
