solid OpenSCAD_Model
  facet normal 0.125334 -0.992115 0
    outer loop
      vertex -8.81047 2.26381 75.75
      vertex -7.93833 2.37399 77.75
      vertex -8.81047 2.26381 77.75
    endloop
  endfacet
  facet normal 0.125334 -0.992115 0
    outer loop
      vertex -7.93833 2.37399 77.75
      vertex -8.81047 2.26381 75.75
      vertex -7.93833 2.37399 75.75
    endloop
  endfacet
  facet normal 0.951057 0.309016 0
    outer loop
      vertex -2.46992 132.491 77.75
      vertex -2.74156 133.327 75.75
      vertex -2.74156 133.327 77.75
    endloop
  endfacet
  facet normal 0.951057 0.309016 0
    outer loop
      vertex -2.74156 133.327 75.75
      vertex -2.46992 132.491 77.75
      vertex -2.46992 132.491 75.75
    endloop
  endfacet
  facet normal 0.951057 -0.309017 0
    outer loop
      vertex -2.74156 6.67313 77.75
      vertex -2.46992 7.50917 75.75
      vertex -2.46992 7.50917 77.75
    endloop
  endfacet
  facet normal 0.951057 -0.309017 0
    outer loop
      vertex -2.46992 7.50917 75.75
      vertex -2.74156 6.67313 77.75
      vertex -2.74156 6.67313 75.75
    endloop
  endfacet
  facet normal -0.904824 0.425785 0
    outer loop
      vertex -72.2584 133.327 75.75
      vertex -71.8841 134.122 77.75
      vertex -71.8841 134.122 75.75
    endloop
  endfacet
  facet normal -0.904824 0.425785 0
    outer loop
      vertex -71.8841 134.122 77.75
      vertex -72.2584 133.327 75.75
      vertex -72.2584 133.327 77.75
    endloop
  endfacet
  facet normal -1 0 0
    outer loop
      vertex -72.75 9.25 75.75
      vertex -72.75 130.75 77.75
      vertex -72.75 130.75 75.75
    endloop
  endfacet
  facet normal -1 -0 0
    outer loop
      vertex -72.75 130.75 77.75
      vertex -72.75 9.25 75.75
      vertex -72.75 9.25 77.75
    endloop
  endfacet
  facet normal 0.904827 -0.425779 0
    outer loop
      vertex -3.11585 5.87772 77.75
      vertex -2.74156 6.67313 75.75
      vertex -2.74156 6.67313 77.75
    endloop
  endfacet
  facet normal 0.904827 -0.425779 0
    outer loop
      vertex -2.74156 6.67313 75.75
      vertex -3.11585 5.87772 77.75
      vertex -3.11585 5.87772 75.75
    endloop
  endfacet
  facet normal 0 -1 0
    outer loop
      vertex -66.1895 2.26381 75.75
      vertex -8.81047 2.26381 77.75
      vertex -66.1895 2.26381 77.75
    endloop
  endfacet
  facet normal 0 -1 -0
    outer loop
      vertex -8.81047 2.26381 77.75
      vertex -66.1895 2.26381 75.75
      vertex -8.81047 2.26381 75.75
    endloop
  endfacet
  facet normal -0.998027 -0.0627924 0
    outer loop
      vertex -72.6948 8.37267 75.75
      vertex -72.75 9.25 77.75
      vertex -72.75 9.25 75.75
    endloop
  endfacet
  facet normal -0.998027 -0.0627924 0
    outer loop
      vertex -72.75 9.25 77.75
      vertex -72.6948 8.37267 75.75
      vertex -72.6948 8.37267 77.75
    endloop
  endfacet
  facet normal 0 1 -0
    outer loop
      vertex -8.81047 137.736 75.75
      vertex -66.1895 137.736 77.75
      vertex -8.81047 137.736 77.75
    endloop
  endfacet
  facet normal 0 1 0
    outer loop
      vertex -66.1895 137.736 77.75
      vertex -8.81047 137.736 75.75
      vertex -66.1895 137.736 75.75
    endloop
  endfacet
  facet normal 0.684546 0.72897 -0
    outer loop
      vertex -4.14722 135.542 75.75
      vertex -4.78803 136.144 77.75
      vertex -4.14722 135.542 77.75
    endloop
  endfacet
  facet normal 0.684546 0.72897 0
    outer loop
      vertex -4.78803 136.144 77.75
      vertex -4.14722 135.542 75.75
      vertex -4.78803 136.144 75.75
    endloop
  endfacet
  facet normal 0.982287 0.187381 0
    outer loop
      vertex -2.3052 131.627 77.75
      vertex -2.46992 132.491 75.75
      vertex -2.46992 132.491 77.75
    endloop
  endfacet
  facet normal 0.982287 0.187381 0
    outer loop
      vertex -2.46992 132.491 75.75
      vertex -2.3052 131.627 77.75
      vertex -2.3052 131.627 75.75
    endloop
  endfacet
  facet normal 0.998027 0.0627911 0
    outer loop
      vertex -2.25 130.75 77.75
      vertex -2.3052 131.627 75.75
      vertex -2.3052 131.627 77.75
    endloop
  endfacet
  facet normal 0.998027 0.0627911 0
    outer loop
      vertex -2.3052 131.627 75.75
      vertex -2.25 130.75 77.75
      vertex -2.25 130.75 75.75
    endloop
  endfacet
  facet normal 0.770514 -0.637424 0
    outer loop
      vertex -4.14722 4.45817 77.75
      vertex -3.58688 5.1355 75.75
      vertex -3.58688 5.1355 77.75
    endloop
  endfacet
  facet normal 0.770514 -0.637424 0
    outer loop
      vertex -3.58688 5.1355 75.75
      vertex -4.14722 4.45817 77.75
      vertex -4.14722 4.45817 75.75
    endloop
  endfacet
  facet normal -0.982288 0.187379 0
    outer loop
      vertex -72.6948 131.627 75.75
      vertex -72.5301 132.491 77.75
      vertex -72.5301 132.491 75.75
    endloop
  endfacet
  facet normal -0.982288 0.187379 0
    outer loop
      vertex -72.5301 132.491 77.75
      vertex -72.6948 131.627 75.75
      vertex -72.6948 131.627 77.75
    endloop
  endfacet
  facet normal -0.998027 0.0627922 0
    outer loop
      vertex -72.75 130.75 75.75
      vertex -72.6948 131.627 77.75
      vertex -72.6948 131.627 75.75
    endloop
  endfacet
  facet normal -0.998027 0.0627922 0
    outer loop
      vertex -72.6948 131.627 77.75
      vertex -72.75 130.75 75.75
      vertex -72.75 130.75 77.75
    endloop
  endfacet
  facet normal -0.951057 0.309014 0
    outer loop
      vertex -72.5301 132.491 75.75
      vertex -72.2584 133.327 77.75
      vertex -72.2584 133.327 75.75
    endloop
  endfacet
  facet normal -0.951057 0.309014 0
    outer loop
      vertex -72.2584 133.327 77.75
      vertex -72.5301 132.491 75.75
      vertex -72.5301 132.491 77.75
    endloop
  endfacet
  facet normal -0.587789 0.809014 0
    outer loop
      vertex -69.5008 136.66 75.75
      vertex -70.212 136.144 77.75
      vertex -69.5008 136.66 77.75
    endloop
  endfacet
  facet normal -0.587789 0.809014 0
    outer loop
      vertex -70.212 136.144 77.75
      vertex -69.5008 136.66 75.75
      vertex -70.212 136.144 75.75
    endloop
  endfacet
  facet normal 0.587789 0.809014 -0
    outer loop
      vertex -4.78803 136.144 75.75
      vertex -5.49921 136.66 77.75
      vertex -4.78803 136.144 77.75
    endloop
  endfacet
  facet normal 0.587789 0.809014 0
    outer loop
      vertex -5.49921 136.66 77.75
      vertex -4.78803 136.144 75.75
      vertex -5.49921 136.66 75.75
    endloop
  endfacet
  facet normal 0.904825 0.425783 0
    outer loop
      vertex -2.74156 133.327 77.75
      vertex -3.11585 134.122 75.75
      vertex -3.11585 134.122 77.75
    endloop
  endfacet
  facet normal 0.904825 0.425783 0
    outer loop
      vertex -3.11585 134.122 75.75
      vertex -2.74156 133.327 77.75
      vertex -2.74156 133.327 75.75
    endloop
  endfacet
  facet normal 1 -0 0
    outer loop
      vertex -2.25 9.25 77.75
      vertex -2.25 130.75 75.75
      vertex -2.25 130.75 77.75
    endloop
  endfacet
  facet normal 1 0 0
    outer loop
      vertex -2.25 130.75 75.75
      vertex -2.25 9.25 77.75
      vertex -2.25 9.25 75.75
    endloop
  endfacet
  facet normal 0.982287 -0.187381 0
    outer loop
      vertex -2.46992 7.50917 77.75
      vertex -2.3052 8.37267 75.75
      vertex -2.3052 8.37267 77.75
    endloop
  endfacet
  facet normal 0.982287 -0.187381 0
    outer loop
      vertex -2.3052 8.37267 75.75
      vertex -2.46992 7.50917 77.75
      vertex -2.46992 7.50917 75.75
    endloop
  endfacet
  facet normal 0.998027 -0.0627913 0
    outer loop
      vertex -2.3052 8.37267 77.75
      vertex -2.25 9.25 75.75
      vertex -2.25 9.25 77.75
    endloop
  endfacet
  facet normal 0.998027 -0.0627913 0
    outer loop
      vertex -2.25 9.25 75.75
      vertex -2.3052 8.37267 77.75
      vertex -2.3052 8.37267 75.75
    endloop
  endfacet
  facet normal 0.844328 -0.535827 0
    outer loop
      vertex -3.58688 5.1355 77.75
      vertex -3.11585 5.87772 75.75
      vertex -3.11585 5.87772 77.75
    endloop
  endfacet
  facet normal 0.844328 -0.535827 0
    outer loop
      vertex -3.11585 5.87772 75.75
      vertex -3.58688 5.1355 77.75
      vertex -3.58688 5.1355 75.75
    endloop
  endfacet
  facet normal 0.368125 -0.929776 0
    outer loop
      vertex -7.08688 2.5926 75.75
      vertex -6.26955 2.91621 77.75
      vertex -7.08688 2.5926 77.75
    endloop
  endfacet
  facet normal 0.368125 -0.929776 0
    outer loop
      vertex -6.26955 2.91621 77.75
      vertex -7.08688 2.5926 75.75
      vertex -6.26955 2.91621 75.75
    endloop
  endfacet
  facet normal -0.684545 -0.72897 0
    outer loop
      vertex -70.8528 4.45817 75.75
      vertex -70.212 3.85641 77.75
      vertex -70.8528 4.45817 77.75
    endloop
  endfacet
  facet normal -0.684545 -0.72897 -0
    outer loop
      vertex -70.212 3.85641 77.75
      vertex -70.8528 4.45817 75.75
      vertex -70.212 3.85641 75.75
    endloop
  endfacet
  facet normal -0.770511 0.637426 0
    outer loop
      vertex -71.4131 134.865 75.75
      vertex -70.8528 135.542 77.75
      vertex -70.8528 135.542 75.75
    endloop
  endfacet
  facet normal -0.770511 0.637426 0
    outer loop
      vertex -70.8528 135.542 77.75
      vertex -71.4131 134.865 75.75
      vertex -71.4131 134.865 77.75
    endloop
  endfacet
  facet normal 0.770509 0.63743 0
    outer loop
      vertex -3.58688 134.865 77.75
      vertex -4.14722 135.542 75.75
      vertex -4.14722 135.542 77.75
    endloop
  endfacet
  facet normal 0.770509 0.63743 0
    outer loop
      vertex -4.14722 135.542 75.75
      vertex -3.58688 134.865 77.75
      vertex -3.58688 134.865 75.75
    endloop
  endfacet
  facet normal 0.844332 0.535821 0
    outer loop
      vertex -3.11585 134.122 77.75
      vertex -3.58688 134.865 75.75
      vertex -3.58688 134.865 77.75
    endloop
  endfacet
  facet normal 0.844332 0.535821 0
    outer loop
      vertex -3.58688 134.865 75.75
      vertex -3.11585 134.122 77.75
      vertex -3.11585 134.122 75.75
    endloop
  endfacet
  facet normal 0.587785 -0.809017 0
    outer loop
      vertex -5.49921 3.33971 75.75
      vertex -4.78803 3.85641 77.75
      vertex -5.49921 3.33971 77.75
    endloop
  endfacet
  facet normal 0.587785 -0.809017 0
    outer loop
      vertex -4.78803 3.85641 77.75
      vertex -5.49921 3.33971 75.75
      vertex -4.78803 3.85641 75.75
    endloop
  endfacet
  facet normal 0.684547 -0.728969 0
    outer loop
      vertex -4.78803 3.85641 75.75
      vertex -4.14722 4.45817 77.75
      vertex -4.78803 3.85641 77.75
    endloop
  endfacet
  facet normal 0.684547 -0.728969 0
    outer loop
      vertex -4.14722 4.45817 77.75
      vertex -4.78803 3.85641 75.75
      vertex -4.14722 4.45817 75.75
    endloop
  endfacet
  facet normal 0.481754 -0.876306 0
    outer loop
      vertex -6.26955 2.91621 75.75
      vertex -5.49921 3.33971 77.75
      vertex -6.26955 2.91621 77.75
    endloop
  endfacet
  facet normal 0.481754 -0.876306 0
    outer loop
      vertex -5.49921 3.33971 77.75
      vertex -6.26955 2.91621 75.75
      vertex -5.49921 3.33971 75.75
    endloop
  endfacet
  facet normal 0.248689 -0.968583 0
    outer loop
      vertex -7.93833 2.37399 75.75
      vertex -7.08688 2.5926 77.75
      vertex -7.93833 2.37399 77.75
    endloop
  endfacet
  facet normal 0.248689 -0.968583 0
    outer loop
      vertex -7.08688 2.5926 77.75
      vertex -7.93833 2.37399 75.75
      vertex -7.08688 2.5926 75.75
    endloop
  endfacet
  facet normal -0.368124 -0.929777 0
    outer loop
      vertex -68.7305 2.91621 75.75
      vertex -67.9131 2.5926 77.75
      vertex -68.7305 2.91621 77.75
    endloop
  endfacet
  facet normal -0.368124 -0.929777 -0
    outer loop
      vertex -67.9131 2.5926 77.75
      vertex -68.7305 2.91621 75.75
      vertex -67.9131 2.5926 75.75
    endloop
  endfacet
  facet normal -0.951057 -0.309015 0
    outer loop
      vertex -72.2584 6.67313 75.75
      vertex -72.5301 7.50917 77.75
      vertex -72.5301 7.50917 75.75
    endloop
  endfacet
  facet normal -0.951057 -0.309015 0
    outer loop
      vertex -72.5301 7.50917 77.75
      vertex -72.2584 6.67313 75.75
      vertex -72.2584 6.67313 77.75
    endloop
  endfacet
  facet normal -0.904826 -0.425781 0
    outer loop
      vertex -71.8841 5.87772 75.75
      vertex -72.2584 6.67313 77.75
      vertex -72.2584 6.67313 75.75
    endloop
  endfacet
  facet normal -0.904826 -0.425781 0
    outer loop
      vertex -72.2584 6.67313 77.75
      vertex -71.8841 5.87772 75.75
      vertex -71.8841 5.87772 77.75
    endloop
  endfacet
  facet normal -0.684544 0.728972 0
    outer loop
      vertex -70.212 136.144 75.75
      vertex -70.8528 135.542 77.75
      vertex -70.212 136.144 77.75
    endloop
  endfacet
  facet normal -0.684544 0.728972 0
    outer loop
      vertex -70.8528 135.542 77.75
      vertex -70.212 136.144 75.75
      vertex -70.8528 135.542 75.75
    endloop
  endfacet
  facet normal -0.84433 0.535823 0
    outer loop
      vertex -71.8841 134.122 75.75
      vertex -71.4131 134.865 77.75
      vertex -71.4131 134.865 75.75
    endloop
  endfacet
  facet normal -0.84433 0.535823 0
    outer loop
      vertex -71.4131 134.865 77.75
      vertex -71.8841 134.122 75.75
      vertex -71.8841 134.122 77.75
    endloop
  endfacet
  facet normal -0 0 1
    outer loop
      vertex -18.2558 117.514 77.75
      vertex -17.5 105.6 77.75
      vertex -16.3122 117.857 77.75
    endloop
  endfacet
  facet normal 0 0 1
    outer loop
      vertex -20.226 117.629 77.75
      vertex -17.5 105.6 77.75
      vertex -18.2558 117.514 77.75
    endloop
  endfacet
  facet normal 0 0 1
    outer loop
      vertex -22.1167 118.195 77.75
      vertex -17.5 105.6 77.75
      vertex -20.226 117.629 77.75
    endloop
  endfacet
  facet normal 0 0 1
    outer loop
      vertex -23.8258 119.182 77.75
      vertex -17.5 105.6 77.75
      vertex -22.1167 118.195 77.75
    endloop
  endfacet
  facet normal -0 0 1
    outer loop
      vertex -47.708 119.855 77.75
      vertex -23.8258 119.182 77.75
      vertex -25.2614 120.536 77.75
    endloop
  endfacet
  facet normal -0 0 1
    outer loop
      vertex -46.6418 121.514 77.75
      vertex -25.2614 120.536 77.75
      vertex -26.3459 122.185 77.75
    endloop
  endfacet
  facet normal 0 0 1
    outer loop
      vertex -46.6418 123.486 77.75
      vertex -27.0209 124.04 77.75
      vertex -27.25 126 77.75
    endloop
  endfacet
  facet normal 0 0 1
    outer loop
      vertex -46.6418 121.514 77.75
      vertex -27.0209 124.04 77.75
      vertex -46.6418 123.486 77.75
    endloop
  endfacet
  facet normal 0 0 1
    outer loop
      vertex -27.0209 124.04 77.75
      vertex -46.6418 121.514 77.75
      vertex -26.3459 122.185 77.75
    endloop
  endfacet
  facet normal 0 0 1
    outer loop
      vertex -25.2614 120.536 77.75
      vertex -46.6418 121.514 77.75
      vertex -47.708 119.855 77.75
    endloop
  endfacet
  facet normal 0 0 1
    outer loop
      vertex -23.8258 119.182 77.75
      vertex -47.708 119.855 77.75
      vertex -17.5 105.6 77.75
    endloop
  endfacet
  facet normal 0 0 1
    outer loop
      vertex -58 105.6 77.75
      vertex -47.708 119.855 77.75
      vertex -49.5019 119.036 77.75
    endloop
  endfacet
  facet normal 0 0 1
    outer loop
      vertex -58 105.6 77.75
      vertex -49.5019 119.036 77.75
      vertex -51.454 119.316 77.75
    endloop
  endfacet
  facet normal 0 0 1
    outer loop
      vertex -47.708 119.855 77.75
      vertex -58 105.6 77.75
      vertex -17.5 105.6 77.75
    endloop
  endfacet
  facet normal 0 0 1
    outer loop
      vertex -52.9444 120.608 77.75
      vertex -58 105.6 77.75
      vertex -51.454 119.316 77.75
    endloop
  endfacet
  facet normal 0 0 1
    outer loop
      vertex -72.75 130.75 77.75
      vertex -52.9444 120.608 77.75
      vertex -53.5 122.5 77.75
    endloop
  endfacet
  facet normal 0 0 1
    outer loop
      vertex -10.7626 128.907 77.75
      vertex -2.25 130.75 77.75
      vertex -2.3052 131.627 77.75
    endloop
  endfacet
  facet normal 0 0 1
    outer loop
      vertex -2.25 130.75 77.75
      vertex -17.5 105.6 77.75
      vertex -2.25 9.25 77.75
    endloop
  endfacet
  facet normal 0 0 1
    outer loop
      vertex -10.7626 128.907 77.75
      vertex -2.3052 131.627 77.75
      vertex -2.46992 132.491 77.75
    endloop
  endfacet
  facet normal 0 0 1
    outer loop
      vertex -17.5 8.1 77.75
      vertex -2.25 9.25 77.75
      vertex -17.5 105.6 77.75
    endloop
  endfacet
  facet normal 0 0 1
    outer loop
      vertex -10.7626 128.907 77.75
      vertex -2.46992 132.491 77.75
      vertex -2.74156 133.327 77.75
    endloop
  endfacet
  facet normal 0 -0 1
    outer loop
      vertex -8.81047 2.26381 77.75
      vertex -2.25 9.25 77.75
      vertex -17.5 8.1 77.75
    endloop
  endfacet
  facet normal 0 0 1
    outer loop
      vertex -10.7626 128.907 77.75
      vertex -2.74156 133.327 77.75
      vertex -3.11585 134.122 77.75
    endloop
  endfacet
  facet normal 0 0 1
    outer loop
      vertex -2.25 9.25 77.75
      vertex -8.81047 2.26381 77.75
      vertex -2.3052 8.37267 77.75
    endloop
  endfacet
  facet normal 0 0 1
    outer loop
      vertex -11.6484 130.671 77.75
      vertex -3.11585 134.122 77.75
      vertex -3.58688 134.865 77.75
    endloop
  endfacet
  facet normal 0 0 1
    outer loop
      vertex -2.3052 8.37267 77.75
      vertex -8.81047 2.26381 77.75
      vertex -2.46992 7.50917 77.75
    endloop
  endfacet
  facet normal 0 0 1
    outer loop
      vertex -11.6484 130.671 77.75
      vertex -3.58688 134.865 77.75
      vertex -4.14722 135.542 77.75
    endloop
  endfacet
  facet normal 0 0 1
    outer loop
      vertex -2.25 130.75 77.75
      vertex -10.7626 123.093 77.75
      vertex -11.6484 121.329 77.75
    endloop
  endfacet
  facet normal 0 0 1
    outer loop
      vertex -11.6484 130.671 77.75
      vertex -4.14722 135.542 77.75
      vertex -4.78803 136.144 77.75
    endloop
  endfacet
  facet normal 0 0 1
    outer loop
      vertex -2.46992 7.50917 77.75
      vertex -8.81047 2.26381 77.75
      vertex -2.74156 6.67313 77.75
    endloop
  endfacet
  facet normal 0 0 1
    outer loop
      vertex -11.6484 130.671 77.75
      vertex -4.78803 136.144 77.75
      vertex -5.49921 136.66 77.75
    endloop
  endfacet
  facet normal 0 0 1
    outer loop
      vertex -2.74156 6.67313 77.75
      vertex -8.81047 2.26381 77.75
      vertex -3.11585 5.87772 77.75
    endloop
  endfacet
  facet normal 0 0 1
    outer loop
      vertex -11.6484 130.671 77.75
      vertex -5.49921 136.66 77.75
      vertex -6.26955 137.084 77.75
    endloop
  endfacet
  facet normal 0 0 1
    outer loop
      vertex -3.11585 5.87772 77.75
      vertex -8.81047 2.26381 77.75
      vertex -3.58688 5.1355 77.75
    endloop
  endfacet
  facet normal 0 0 1
    outer loop
      vertex -11.6484 130.671 77.75
      vertex -6.26955 137.084 77.75
      vertex -7.08688 137.407 77.75
    endloop
  endfacet
  facet normal 0 0 1
    outer loop
      vertex -2.25 130.75 77.75
      vertex -10.3075 125.013 77.75
      vertex -10.7626 123.093 77.75
    endloop
  endfacet
  facet normal 0 0 1
    outer loop
      vertex -11.6484 130.671 77.75
      vertex -7.08688 137.407 77.75
      vertex -7.93833 137.626 77.75
    endloop
  endfacet
  facet normal 0 0 1
    outer loop
      vertex -3.58688 5.1355 77.75
      vertex -8.81047 2.26381 77.75
      vertex -4.14722 4.45817 77.75
    endloop
  endfacet
  facet normal 0 0 1
    outer loop
      vertex -11.6484 130.671 77.75
      vertex -7.93833 137.626 77.75
      vertex -8.81047 137.736 77.75
    endloop
  endfacet
  facet normal 0 0 1
    outer loop
      vertex -4.14722 4.45817 77.75
      vertex -8.81047 2.26381 77.75
      vertex -4.78803 3.85641 77.75
    endloop
  endfacet
  facet normal 0 0 1
    outer loop
      vertex -2.25 130.75 77.75
      vertex -10.3075 126.987 77.75
      vertex -10.3075 125.013 77.75
    endloop
  endfacet
  facet normal 0 0 1
    outer loop
      vertex -2.25 130.75 77.75
      vertex -10.7626 128.907 77.75
      vertex -10.3075 126.987 77.75
    endloop
  endfacet
  facet normal 0 0 1
    outer loop
      vertex -3.11585 134.122 77.75
      vertex -11.6484 130.671 77.75
      vertex -10.7626 128.907 77.75
    endloop
  endfacet
  facet normal 0 0 1
    outer loop
      vertex -8.81047 137.736 77.75
      vertex -12.9169 132.183 77.75
      vertex -11.6484 130.671 77.75
    endloop
  endfacet
  facet normal 0 0 1
    outer loop
      vertex -8.81047 137.736 77.75
      vertex -14.5 133.361 77.75
      vertex -12.9169 132.183 77.75
    endloop
  endfacet
  facet normal 0 0 1
    outer loop
      vertex -8.81047 137.736 77.75
      vertex -16.3122 134.143 77.75
      vertex -14.5 133.361 77.75
    endloop
  endfacet
  facet normal 0 0 1
    outer loop
      vertex -8.81047 137.736 77.75
      vertex -18.2558 134.486 77.75
      vertex -16.3122 134.143 77.75
    endloop
  endfacet
  facet normal 0 0 1
    outer loop
      vertex -8.81047 137.736 77.75
      vertex -20.226 134.371 77.75
      vertex -18.2558 134.486 77.75
    endloop
  endfacet
  facet normal 0 0 1
    outer loop
      vertex -27.0209 127.96 77.75
      vertex -46.6418 123.486 77.75
      vertex -27.25 126 77.75
    endloop
  endfacet
  facet normal 0 0 1
    outer loop
      vertex -47.708 125.145 77.75
      vertex -27.0209 127.96 77.75
      vertex -26.3459 129.815 77.75
    endloop
  endfacet
  facet normal 0 0 1
    outer loop
      vertex -47.708 125.145 77.75
      vertex -26.3459 129.815 77.75
      vertex -25.2614 131.464 77.75
    endloop
  endfacet
  facet normal 0 0 1
    outer loop
      vertex -49.5019 125.964 77.75
      vertex -25.2614 131.464 77.75
      vertex -23.8258 132.818 77.75
    endloop
  endfacet
  facet normal 0 0 1
    outer loop
      vertex -66.1895 137.736 77.75
      vertex -23.8258 132.818 77.75
      vertex -22.1167 133.805 77.75
    endloop
  endfacet
  facet normal 0 0 1
    outer loop
      vertex -27.0209 127.96 77.75
      vertex -47.708 125.145 77.75
      vertex -46.6418 123.486 77.75
    endloop
  endfacet
  facet normal 0 0 1
    outer loop
      vertex -25.2614 131.464 77.75
      vertex -49.5019 125.964 77.75
      vertex -47.708 125.145 77.75
    endloop
  endfacet
  facet normal 0 0 1
    outer loop
      vertex -66.1895 137.736 77.75
      vertex -22.1167 133.805 77.75
      vertex -20.226 134.371 77.75
    endloop
  endfacet
  facet normal -0 0 1
    outer loop
      vertex -66.1895 137.736 77.75
      vertex -20.226 134.371 77.75
      vertex -8.81047 137.736 77.75
    endloop
  endfacet
  facet normal 0 0 1
    outer loop
      vertex -23.8258 132.818 77.75
      vertex -66.1895 137.736 77.75
      vertex -49.5019 125.964 77.75
    endloop
  endfacet
  facet normal 0 0 1
    outer loop
      vertex -52.9444 120.608 77.75
      vertex -72.75 130.75 77.75
      vertex -58 105.6 77.75
    endloop
  endfacet
  facet normal 0 0 1
    outer loop
      vertex -52.9444 124.392 77.75
      vertex -72.75 130.75 77.75
      vertex -53.5 122.5 77.75
    endloop
  endfacet
  facet normal -0 0 1
    outer loop
      vertex -72.75 130.75 77.75
      vertex -52.9444 124.392 77.75
      vertex -66.1895 137.736 77.75
    endloop
  endfacet
  facet normal 0 0 1
    outer loop
      vertex -51.454 125.684 77.75
      vertex -66.1895 137.736 77.75
      vertex -52.9444 124.392 77.75
    endloop
  endfacet
  facet normal 0 0 1
    outer loop
      vertex -49.5019 125.964 77.75
      vertex -66.1895 137.736 77.75
      vertex -51.454 125.684 77.75
    endloop
  endfacet
  facet normal 0 0 1
    outer loop
      vertex -4.78803 3.85641 77.75
      vertex -8.81047 2.26381 77.75
      vertex -5.49921 3.33971 77.75
    endloop
  endfacet
  facet normal 0 0 1
    outer loop
      vertex -5.49921 3.33971 77.75
      vertex -8.81047 2.26381 77.75
      vertex -6.26955 2.91621 77.75
    endloop
  endfacet
  facet normal 0 0 1
    outer loop
      vertex -2.25 130.75 77.75
      vertex -11.6484 121.329 77.75
      vertex -17.5 105.6 77.75
    endloop
  endfacet
  facet normal 0 0 1
    outer loop
      vertex -17.5 105.6 77.75
      vertex -11.6484 121.329 77.75
      vertex -12.9169 119.817 77.75
    endloop
  endfacet
  facet normal 0 0 1
    outer loop
      vertex -17.5 105.6 77.75
      vertex -12.9169 119.817 77.75
      vertex -14.5 118.639 77.75
    endloop
  endfacet
  facet normal 0 0 1
    outer loop
      vertex -17.5 105.6 77.75
      vertex -14.5 118.639 77.75
      vertex -16.3122 117.857 77.75
    endloop
  endfacet
  facet normal 0 0 1
    outer loop
      vertex -6.26955 2.91621 77.75
      vertex -8.81047 2.26381 77.75
      vertex -7.08688 2.5926 77.75
    endloop
  endfacet
  facet normal 0 0 1
    outer loop
      vertex -7.08688 2.5926 77.75
      vertex -8.81047 2.26381 77.75
      vertex -7.93833 2.37399 77.75
    endloop
  endfacet
  facet normal 0 0 1
    outer loop
      vertex -66.1895 2.26381 77.75
      vertex -17.5 8.1 77.75
      vertex -58 8.1 77.75
    endloop
  endfacet
  facet normal 0 0 1
    outer loop
      vertex -17.5 8.1 77.75
      vertex -66.1895 2.26381 77.75
      vertex -8.81047 2.26381 77.75
    endloop
  endfacet
  facet normal 0 0 1
    outer loop
      vertex -72.75 9.25 77.75
      vertex -58 105.6 77.75
      vertex -72.75 130.75 77.75
    endloop
  endfacet
  facet normal 0 0 1
    outer loop
      vertex -72.75 130.75 77.75
      vertex -66.1895 137.736 77.75
      vertex -67.0617 137.626 77.75
    endloop
  endfacet
  facet normal 0 0 1
    outer loop
      vertex -58 105.6 77.75
      vertex -72.75 9.25 77.75
      vertex -58 8.1 77.75
    endloop
  endfacet
  facet normal 0 0 1
    outer loop
      vertex -72.75 130.75 77.75
      vertex -67.0617 137.626 77.75
      vertex -67.9131 137.407 77.75
    endloop
  endfacet
  facet normal 0 0 1
    outer loop
      vertex -58 8.1 77.75
      vertex -72.75 9.25 77.75
      vertex -66.1895 2.26381 77.75
    endloop
  endfacet
  facet normal 0 0 1
    outer loop
      vertex -72.75 130.75 77.75
      vertex -67.9131 137.407 77.75
      vertex -68.7305 137.084 77.75
    endloop
  endfacet
  facet normal 0 0 1
    outer loop
      vertex -66.1895 2.26381 77.75
      vertex -72.75 9.25 77.75
      vertex -67.0617 2.37399 77.75
    endloop
  endfacet
  facet normal 0 0 1
    outer loop
      vertex -72.75 130.75 77.75
      vertex -68.7305 137.084 77.75
      vertex -69.5008 136.66 77.75
    endloop
  endfacet
  facet normal 0 0 1
    outer loop
      vertex -67.0617 2.37399 77.75
      vertex -72.75 9.25 77.75
      vertex -67.9131 2.5926 77.75
    endloop
  endfacet
  facet normal 0 0 1
    outer loop
      vertex -72.75 130.75 77.75
      vertex -69.5008 136.66 77.75
      vertex -70.212 136.144 77.75
    endloop
  endfacet
  facet normal 0 0 1
    outer loop
      vertex -67.9131 2.5926 77.75
      vertex -72.75 9.25 77.75
      vertex -68.7305 2.91621 77.75
    endloop
  endfacet
  facet normal 0 0 1
    outer loop
      vertex -72.75 130.75 77.75
      vertex -70.212 136.144 77.75
      vertex -70.8528 135.542 77.75
    endloop
  endfacet
  facet normal 0 0 1
    outer loop
      vertex -68.7305 2.91621 77.75
      vertex -72.75 9.25 77.75
      vertex -69.5008 3.33971 77.75
    endloop
  endfacet
  facet normal 0 0 1
    outer loop
      vertex -72.75 130.75 77.75
      vertex -70.8528 135.542 77.75
      vertex -71.4131 134.865 77.75
    endloop
  endfacet
  facet normal 0 0 1
    outer loop
      vertex -69.5008 3.33971 77.75
      vertex -72.75 9.25 77.75
      vertex -70.212 3.85641 77.75
    endloop
  endfacet
  facet normal 0 0 1
    outer loop
      vertex -72.75 130.75 77.75
      vertex -71.4131 134.865 77.75
      vertex -71.8841 134.122 77.75
    endloop
  endfacet
  facet normal 0 0 1
    outer loop
      vertex -70.212 3.85641 77.75
      vertex -72.75 9.25 77.75
      vertex -70.8528 4.45817 77.75
    endloop
  endfacet
  facet normal 0 0 1
    outer loop
      vertex -72.75 130.75 77.75
      vertex -71.8841 134.122 77.75
      vertex -72.2584 133.327 77.75
    endloop
  endfacet
  facet normal 0 0 1
    outer loop
      vertex -70.8528 4.45817 77.75
      vertex -72.75 9.25 77.75
      vertex -71.4131 5.1355 77.75
    endloop
  endfacet
  facet normal 0 0 1
    outer loop
      vertex -72.75 130.75 77.75
      vertex -72.2584 133.327 77.75
      vertex -72.5301 132.491 77.75
    endloop
  endfacet
  facet normal 0 0 1
    outer loop
      vertex -71.4131 5.1355 77.75
      vertex -72.75 9.25 77.75
      vertex -71.8841 5.87772 77.75
    endloop
  endfacet
  facet normal 0 0 1
    outer loop
      vertex -72.75 130.75 77.75
      vertex -72.5301 132.491 77.75
      vertex -72.6948 131.627 77.75
    endloop
  endfacet
  facet normal 0 0 1
    outer loop
      vertex -71.8841 5.87772 77.75
      vertex -72.75 9.25 77.75
      vertex -72.2584 6.67313 77.75
    endloop
  endfacet
  facet normal 0 0 1
    outer loop
      vertex -72.2584 6.67313 77.75
      vertex -72.75 9.25 77.75
      vertex -72.5301 7.50917 77.75
    endloop
  endfacet
  facet normal 0 0 1
    outer loop
      vertex -72.5301 7.50917 77.75
      vertex -72.75 9.25 77.75
      vertex -72.6948 8.37267 77.75
    endloop
  endfacet
  facet normal -0.982288 -0.187379 0
    outer loop
      vertex -72.5301 7.50917 75.75
      vertex -72.6948 8.37267 77.75
      vertex -72.6948 8.37267 75.75
    endloop
  endfacet
  facet normal -0.982288 -0.187379 0
    outer loop
      vertex -72.6948 8.37267 77.75
      vertex -72.5301 7.50917 75.75
      vertex -72.5301 7.50917 77.75
    endloop
  endfacet
  facet normal -0.844326 -0.53583 0
    outer loop
      vertex -71.4131 5.1355 75.75
      vertex -71.8841 5.87772 77.75
      vertex -71.8841 5.87772 75.75
    endloop
  endfacet
  facet normal -0.844326 -0.53583 0
    outer loop
      vertex -71.8841 5.87772 77.75
      vertex -71.4131 5.1355 75.75
      vertex -71.4131 5.1355 77.75
    endloop
  endfacet
  facet normal -0.770516 -0.63742 0
    outer loop
      vertex -70.8528 4.45817 75.75
      vertex -71.4131 5.1355 77.75
      vertex -71.4131 5.1355 75.75
    endloop
  endfacet
  facet normal -0.770516 -0.63742 0
    outer loop
      vertex -71.4131 5.1355 77.75
      vertex -70.8528 4.45817 75.75
      vertex -70.8528 4.45817 77.75
    endloop
  endfacet
  facet normal -0.587784 -0.809018 0
    outer loop
      vertex -70.212 3.85641 75.75
      vertex -69.5008 3.33971 77.75
      vertex -70.212 3.85641 77.75
    endloop
  endfacet
  facet normal -0.587784 -0.809018 -0
    outer loop
      vertex -69.5008 3.33971 77.75
      vertex -70.212 3.85641 75.75
      vertex -69.5008 3.33971 75.75
    endloop
  endfacet
  facet normal -0.481754 -0.876306 0
    outer loop
      vertex -69.5008 3.33971 75.75
      vertex -68.7305 2.91621 77.75
      vertex -69.5008 3.33971 77.75
    endloop
  endfacet
  facet normal -0.481754 -0.876306 -0
    outer loop
      vertex -68.7305 2.91621 77.75
      vertex -69.5008 3.33971 75.75
      vertex -68.7305 2.91621 75.75
    endloop
  endfacet
  facet normal -0.24869 -0.968583 0
    outer loop
      vertex -67.9131 2.5926 75.75
      vertex -67.0617 2.37399 77.75
      vertex -67.9131 2.5926 77.75
    endloop
  endfacet
  facet normal -0.24869 -0.968583 -0
    outer loop
      vertex -67.0617 2.37399 77.75
      vertex -67.9131 2.5926 75.75
      vertex -67.0617 2.37399 75.75
    endloop
  endfacet
  facet normal -0.125334 -0.992115 0
    outer loop
      vertex -67.0617 2.37399 75.75
      vertex -66.1895 2.26381 77.75
      vertex -67.0617 2.37399 77.75
    endloop
  endfacet
  facet normal -0.125334 -0.992115 -0
    outer loop
      vertex -66.1895 2.26381 77.75
      vertex -67.0617 2.37399 75.75
      vertex -66.1895 2.26381 75.75
    endloop
  endfacet
  facet normal -0.368126 0.929776 0
    outer loop
      vertex -67.9131 137.407 75.75
      vertex -68.7305 137.084 77.75
      vertex -67.9131 137.407 77.75
    endloop
  endfacet
  facet normal -0.368126 0.929776 0
    outer loop
      vertex -68.7305 137.084 77.75
      vertex -67.9131 137.407 75.75
      vertex -68.7305 137.084 75.75
    endloop
  endfacet
  facet normal -0.248688 0.968584 0
    outer loop
      vertex -67.0617 137.626 75.75
      vertex -67.9131 137.407 77.75
      vertex -67.0617 137.626 77.75
    endloop
  endfacet
  facet normal -0.248688 0.968584 0
    outer loop
      vertex -67.9131 137.407 77.75
      vertex -67.0617 137.626 75.75
      vertex -67.9131 137.407 75.75
    endloop
  endfacet
  facet normal -0.481752 0.876307 0
    outer loop
      vertex -68.7305 137.084 75.75
      vertex -69.5008 136.66 77.75
      vertex -68.7305 137.084 77.75
    endloop
  endfacet
  facet normal -0.481752 0.876307 0
    outer loop
      vertex -69.5008 136.66 77.75
      vertex -68.7305 137.084 75.75
      vertex -69.5008 136.66 75.75
    endloop
  endfacet
  facet normal -0.125341 0.992114 0
    outer loop
      vertex -66.1895 137.736 75.75
      vertex -67.0617 137.626 77.75
      vertex -66.1895 137.736 77.75
    endloop
  endfacet
  facet normal -0.125341 0.992114 0
    outer loop
      vertex -67.0617 137.626 77.75
      vertex -66.1895 137.736 75.75
      vertex -67.0617 137.626 75.75
    endloop
  endfacet
  facet normal 0.248687 0.968584 -0
    outer loop
      vertex -7.08688 137.407 75.75
      vertex -7.93833 137.626 77.75
      vertex -7.08688 137.407 77.75
    endloop
  endfacet
  facet normal 0.248687 0.968584 0
    outer loop
      vertex -7.93833 137.626 77.75
      vertex -7.08688 137.407 75.75
      vertex -7.93833 137.626 75.75
    endloop
  endfacet
  facet normal 0.125342 0.992114 -0
    outer loop
      vertex -7.93833 137.626 75.75
      vertex -8.81047 137.736 77.75
      vertex -7.93833 137.626 77.75
    endloop
  endfacet
  facet normal 0.125342 0.992114 0
    outer loop
      vertex -8.81047 137.736 77.75
      vertex -7.93833 137.626 75.75
      vertex -8.81047 137.736 75.75
    endloop
  endfacet
  facet normal 0.368127 0.929776 -0
    outer loop
      vertex -6.26955 137.084 75.75
      vertex -7.08688 137.407 77.75
      vertex -6.26955 137.084 77.75
    endloop
  endfacet
  facet normal 0.368127 0.929776 0
    outer loop
      vertex -7.08688 137.407 77.75
      vertex -6.26955 137.084 75.75
      vertex -7.08688 137.407 75.75
    endloop
  endfacet
  facet normal 0.481752 0.876307 -0
    outer loop
      vertex -5.49921 136.66 75.75
      vertex -6.26955 137.084 77.75
      vertex -5.49921 136.66 77.75
    endloop
  endfacet
  facet normal 0.481752 0.876307 0
    outer loop
      vertex -6.26955 137.084 77.75
      vertex -5.49921 136.66 75.75
      vertex -6.26955 137.084 75.75
    endloop
  endfacet
  facet normal 0 0 -1
    outer loop
      vertex -8.81047 2.26381 75.75
      vertex -2.25 9.25 75.75
      vertex -2.3052 8.37267 75.75
    endloop
  endfacet
  facet normal 0 0 -1
    outer loop
      vertex -2.25 9.25 75.75
      vertex -17.5 105.6 75.75
      vertex -2.25 130.75 75.75
    endloop
  endfacet
  facet normal 0 0 -1
    outer loop
      vertex -8.81047 2.26381 75.75
      vertex -2.3052 8.37267 75.75
      vertex -2.46992 7.50917 75.75
    endloop
  endfacet
  facet normal 0 -0 -1
    outer loop
      vertex -11.6484 121.329 75.75
      vertex -2.25 130.75 75.75
      vertex -17.5 105.6 75.75
    endloop
  endfacet
  facet normal 0 0 -1
    outer loop
      vertex -8.81047 2.26381 75.75
      vertex -2.46992 7.50917 75.75
      vertex -2.74156 6.67313 75.75
    endloop
  endfacet
  facet normal 0 -0 -1
    outer loop
      vertex -10.7626 123.093 75.75
      vertex -2.25 130.75 75.75
      vertex -11.6484 121.329 75.75
    endloop
  endfacet
  facet normal 0 0 -1
    outer loop
      vertex -8.81047 2.26381 75.75
      vertex -2.74156 6.67313 75.75
      vertex -3.11585 5.87772 75.75
    endloop
  endfacet
  facet normal 0 -0 -1
    outer loop
      vertex -10.3075 125.013 75.75
      vertex -2.25 130.75 75.75
      vertex -10.7626 123.093 75.75
    endloop
  endfacet
  facet normal 0 0 -1
    outer loop
      vertex -8.81047 2.26381 75.75
      vertex -3.11585 5.87772 75.75
      vertex -3.58688 5.1355 75.75
    endloop
  endfacet
  facet normal 0 0 -1
    outer loop
      vertex -10.3075 126.987 75.75
      vertex -2.25 130.75 75.75
      vertex -10.3075 125.013 75.75
    endloop
  endfacet
  facet normal 0 0 -1
    outer loop
      vertex -8.81047 2.26381 75.75
      vertex -3.58688 5.1355 75.75
      vertex -4.14722 4.45817 75.75
    endloop
  endfacet
  facet normal 0 0 -1
    outer loop
      vertex -10.7626 128.907 75.75
      vertex -2.25 130.75 75.75
      vertex -10.3075 126.987 75.75
    endloop
  endfacet
  facet normal 0 0 -1
    outer loop
      vertex -8.81047 2.26381 75.75
      vertex -4.14722 4.45817 75.75
      vertex -4.78803 3.85641 75.75
    endloop
  endfacet
  facet normal -0 0 -1
    outer loop
      vertex -2.46992 132.491 75.75
      vertex -10.7626 128.907 75.75
      vertex -2.74156 133.327 75.75
    endloop
  endfacet
  facet normal 0 0 -1
    outer loop
      vertex -8.81047 2.26381 75.75
      vertex -4.78803 3.85641 75.75
      vertex -5.49921 3.33971 75.75
    endloop
  endfacet
  facet normal -0 0 -1
    outer loop
      vertex -2.74156 133.327 75.75
      vertex -10.7626 128.907 75.75
      vertex -3.11585 134.122 75.75
    endloop
  endfacet
  facet normal 0 0 -1
    outer loop
      vertex -8.81047 2.26381 75.75
      vertex -5.49921 3.33971 75.75
      vertex -6.26955 2.91621 75.75
    endloop
  endfacet
  facet normal 0 0 -1
    outer loop
      vertex -11.6484 130.671 75.75
      vertex -3.11585 134.122 75.75
      vertex -10.7626 128.907 75.75
    endloop
  endfacet
  facet normal 0 0 -1
    outer loop
      vertex -8.81047 2.26381 75.75
      vertex -6.26955 2.91621 75.75
      vertex -7.08688 2.5926 75.75
    endloop
  endfacet
  facet normal -0 0 -1
    outer loop
      vertex -3.11585 134.122 75.75
      vertex -11.6484 130.671 75.75
      vertex -3.58688 134.865 75.75
    endloop
  endfacet
  facet normal 0 0 -1
    outer loop
      vertex -8.81047 2.26381 75.75
      vertex -7.08688 2.5926 75.75
      vertex -7.93833 2.37399 75.75
    endloop
  endfacet
  facet normal -0 0 -1
    outer loop
      vertex -4.14722 135.542 75.75
      vertex -11.6484 130.671 75.75
      vertex -4.78803 136.144 75.75
    endloop
  endfacet
  facet normal 0 0 -1
    outer loop
      vertex -2.25 9.25 75.75
      vertex -8.81047 2.26381 75.75
      vertex -17.5 8.1 75.75
    endloop
  endfacet
  facet normal -0 0 -1
    outer loop
      vertex -4.78803 136.144 75.75
      vertex -11.6484 130.671 75.75
      vertex -5.49921 136.66 75.75
    endloop
  endfacet
  facet normal -0 0 -1
    outer loop
      vertex -5.49921 136.66 75.75
      vertex -11.6484 130.671 75.75
      vertex -6.26955 137.084 75.75
    endloop
  endfacet
  facet normal -0 0 -1
    outer loop
      vertex -3.58688 134.865 75.75
      vertex -11.6484 130.671 75.75
      vertex -4.14722 135.542 75.75
    endloop
  endfacet
  facet normal -0 0 -1
    outer loop
      vertex -2.3052 131.627 75.75
      vertex -10.7626 128.907 75.75
      vertex -2.46992 132.491 75.75
    endloop
  endfacet
  facet normal -0 0 -1
    outer loop
      vertex -2.25 130.75 75.75
      vertex -10.7626 128.907 75.75
      vertex -2.3052 131.627 75.75
    endloop
  endfacet
  facet normal 0 0 -1
    outer loop
      vertex -11.6484 121.329 75.75
      vertex -17.5 105.6 75.75
      vertex -12.9169 119.817 75.75
    endloop
  endfacet
  facet normal 0 0 -1
    outer loop
      vertex -12.9169 119.817 75.75
      vertex -17.5 105.6 75.75
      vertex -14.5 118.639 75.75
    endloop
  endfacet
  facet normal -0 0 -1
    outer loop
      vertex -2.25 9.25 75.75
      vertex -17.5 8.1 75.75
      vertex -17.5 105.6 75.75
    endloop
  endfacet
  facet normal 0 0 -1
    outer loop
      vertex -66.1895 2.26381 75.75
      vertex -17.5 8.1 75.75
      vertex -8.81047 2.26381 75.75
    endloop
  endfacet
  facet normal 0 0 -1
    outer loop
      vertex -72.75 9.25 75.75
      vertex -58 8.1 75.75
      vertex -66.1895 2.26381 75.75
    endloop
  endfacet
  facet normal -0 0 -1
    outer loop
      vertex -17.5 8.1 75.75
      vertex -66.1895 2.26381 75.75
      vertex -58 8.1 75.75
    endloop
  endfacet
  facet normal -0 0 -1
    outer loop
      vertex -6.26955 137.084 75.75
      vertex -11.6484 130.671 75.75
      vertex -7.08688 137.407 75.75
    endloop
  endfacet
  facet normal -0 0 -1
    outer loop
      vertex -7.08688 137.407 75.75
      vertex -11.6484 130.671 75.75
      vertex -7.93833 137.626 75.75
    endloop
  endfacet
  facet normal -0 0 -1
    outer loop
      vertex -7.93833 137.626 75.75
      vertex -11.6484 130.671 75.75
      vertex -8.81047 137.736 75.75
    endloop
  endfacet
  facet normal 0 0 -1
    outer loop
      vertex -12.9169 132.183 75.75
      vertex -8.81047 137.736 75.75
      vertex -11.6484 130.671 75.75
    endloop
  endfacet
  facet normal 0 0 -1
    outer loop
      vertex -14.5 133.361 75.75
      vertex -8.81047 137.736 75.75
      vertex -12.9169 132.183 75.75
    endloop
  endfacet
  facet normal 0 0 -1
    outer loop
      vertex -16.3122 134.143 75.75
      vertex -8.81047 137.736 75.75
      vertex -14.5 133.361 75.75
    endloop
  endfacet
  facet normal 0 0 -1
    outer loop
      vertex -18.2558 134.486 75.75
      vertex -8.81047 137.736 75.75
      vertex -16.3122 134.143 75.75
    endloop
  endfacet
  facet normal 0 0 -1
    outer loop
      vertex -20.226 134.371 75.75
      vertex -8.81047 137.736 75.75
      vertex -18.2558 134.486 75.75
    endloop
  endfacet
  facet normal -0 0 -1
    outer loop
      vertex -27.0209 124.04 75.75
      vertex -46.6418 123.486 75.75
      vertex -27.25 126 75.75
    endloop
  endfacet
  facet normal -0 0 -1
    outer loop
      vertex -27.25 126 75.75
      vertex -46.6418 123.486 75.75
      vertex -27.0209 127.96 75.75
    endloop
  endfacet
  facet normal 0 0 -1
    outer loop
      vertex -47.708 125.145 75.75
      vertex -27.0209 127.96 75.75
      vertex -46.6418 123.486 75.75
    endloop
  endfacet
  facet normal -0 0 -1
    outer loop
      vertex -27.0209 127.96 75.75
      vertex -47.708 125.145 75.75
      vertex -26.3459 129.815 75.75
    endloop
  endfacet
  facet normal -0 0 -1
    outer loop
      vertex -26.3459 129.815 75.75
      vertex -47.708 125.145 75.75
      vertex -25.2614 131.464 75.75
    endloop
  endfacet
  facet normal 0 0 -1
    outer loop
      vertex -49.5019 125.964 75.75
      vertex -25.2614 131.464 75.75
      vertex -47.708 125.145 75.75
    endloop
  endfacet
  facet normal -0 0 -1
    outer loop
      vertex -25.2614 131.464 75.75
      vertex -49.5019 125.964 75.75
      vertex -23.8258 132.818 75.75
    endloop
  endfacet
  facet normal 0 0 -1
    outer loop
      vertex -66.1895 137.736 75.75
      vertex -23.8258 132.818 75.75
      vertex -49.5019 125.964 75.75
    endloop
  endfacet
  facet normal 0 0 -1
    outer loop
      vertex -23.8258 132.818 75.75
      vertex -66.1895 137.736 75.75
      vertex -22.1167 133.805 75.75
    endloop
  endfacet
  facet normal 0 0 -1
    outer loop
      vertex -22.1167 133.805 75.75
      vertex -66.1895 137.736 75.75
      vertex -20.226 134.371 75.75
    endloop
  endfacet
  facet normal 0 0 -1
    outer loop
      vertex -66.1895 137.736 75.75
      vertex -49.5019 125.964 75.75
      vertex -51.454 125.684 75.75
    endloop
  endfacet
  facet normal 0 0 -1
    outer loop
      vertex -20.226 134.371 75.75
      vertex -66.1895 137.736 75.75
      vertex -8.81047 137.736 75.75
    endloop
  endfacet
  facet normal 0 0 -1
    outer loop
      vertex -52.9444 124.392 75.75
      vertex -66.1895 137.736 75.75
      vertex -51.454 125.684 75.75
    endloop
  endfacet
  facet normal 0 0 -1
    outer loop
      vertex -72.75 130.75 75.75
      vertex -52.9444 124.392 75.75
      vertex -53.5 122.5 75.75
    endloop
  endfacet
  facet normal 0 0 -1
    outer loop
      vertex -52.9444 120.608 75.75
      vertex -72.75 130.75 75.75
      vertex -53.5 122.5 75.75
    endloop
  endfacet
  facet normal 0 0 -1
    outer loop
      vertex -58 8.1 75.75
      vertex -72.75 9.25 75.75
      vertex -58 105.6 75.75
    endloop
  endfacet
  facet normal 0 0 -1
    outer loop
      vertex -72.75 9.25 75.75
      vertex -66.1895 2.26381 75.75
      vertex -67.0617 2.37399 75.75
    endloop
  endfacet
  facet normal 0 0 -1
    outer loop
      vertex -72.75 130.75 75.75
      vertex -58 105.6 75.75
      vertex -72.75 9.25 75.75
    endloop
  endfacet
  facet normal 0 0 -1
    outer loop
      vertex -72.75 9.25 75.75
      vertex -67.0617 2.37399 75.75
      vertex -67.9131 2.5926 75.75
    endloop
  endfacet
  facet normal 0 0 -1
    outer loop
      vertex -52.9444 124.392 75.75
      vertex -72.75 130.75 75.75
      vertex -66.1895 137.736 75.75
    endloop
  endfacet
  facet normal 0 0 -1
    outer loop
      vertex -72.75 9.25 75.75
      vertex -67.9131 2.5926 75.75
      vertex -68.7305 2.91621 75.75
    endloop
  endfacet
  facet normal 0 0 -1
    outer loop
      vertex -66.1895 137.736 75.75
      vertex -72.75 130.75 75.75
      vertex -67.0617 137.626 75.75
    endloop
  endfacet
  facet normal 0 0 -1
    outer loop
      vertex -72.75 9.25 75.75
      vertex -68.7305 2.91621 75.75
      vertex -69.5008 3.33971 75.75
    endloop
  endfacet
  facet normal 0 0 -1
    outer loop
      vertex -67.0617 137.626 75.75
      vertex -72.75 130.75 75.75
      vertex -67.9131 137.407 75.75
    endloop
  endfacet
  facet normal 0 0 -1
    outer loop
      vertex -72.75 9.25 75.75
      vertex -69.5008 3.33971 75.75
      vertex -70.212 3.85641 75.75
    endloop
  endfacet
  facet normal 0 0 -1
    outer loop
      vertex -67.9131 137.407 75.75
      vertex -72.75 130.75 75.75
      vertex -68.7305 137.084 75.75
    endloop
  endfacet
  facet normal 0 0 -1
    outer loop
      vertex -72.75 9.25 75.75
      vertex -70.212 3.85641 75.75
      vertex -70.8528 4.45817 75.75
    endloop
  endfacet
  facet normal 0 0 -1
    outer loop
      vertex -68.7305 137.084 75.75
      vertex -72.75 130.75 75.75
      vertex -69.5008 136.66 75.75
    endloop
  endfacet
  facet normal 0 0 -1
    outer loop
      vertex -72.75 9.25 75.75
      vertex -70.8528 4.45817 75.75
      vertex -71.4131 5.1355 75.75
    endloop
  endfacet
  facet normal 0 0 -1
    outer loop
      vertex -69.5008 136.66 75.75
      vertex -72.75 130.75 75.75
      vertex -70.212 136.144 75.75
    endloop
  endfacet
  facet normal 0 0 -1
    outer loop
      vertex -72.75 9.25 75.75
      vertex -71.4131 5.1355 75.75
      vertex -71.8841 5.87772 75.75
    endloop
  endfacet
  facet normal 0 0 -1
    outer loop
      vertex -70.212 136.144 75.75
      vertex -72.75 130.75 75.75
      vertex -70.8528 135.542 75.75
    endloop
  endfacet
  facet normal 0 0 -1
    outer loop
      vertex -72.75 9.25 75.75
      vertex -71.8841 5.87772 75.75
      vertex -72.2584 6.67313 75.75
    endloop
  endfacet
  facet normal 0 0 -1
    outer loop
      vertex -70.8528 135.542 75.75
      vertex -72.75 130.75 75.75
      vertex -71.4131 134.865 75.75
    endloop
  endfacet
  facet normal 0 0 -1
    outer loop
      vertex -72.75 9.25 75.75
      vertex -72.2584 6.67313 75.75
      vertex -72.5301 7.50917 75.75
    endloop
  endfacet
  facet normal 0 0 -1
    outer loop
      vertex -71.4131 134.865 75.75
      vertex -72.75 130.75 75.75
      vertex -71.8841 134.122 75.75
    endloop
  endfacet
  facet normal 0 0 -1
    outer loop
      vertex -72.75 9.25 75.75
      vertex -72.5301 7.50917 75.75
      vertex -72.6948 8.37267 75.75
    endloop
  endfacet
  facet normal 0 0 -1
    outer loop
      vertex -71.8841 134.122 75.75
      vertex -72.75 130.75 75.75
      vertex -72.2584 133.327 75.75
    endloop
  endfacet
  facet normal 0 0 -1
    outer loop
      vertex -72.2584 133.327 75.75
      vertex -72.75 130.75 75.75
      vertex -72.5301 132.491 75.75
    endloop
  endfacet
  facet normal 0 0 -1
    outer loop
      vertex -72.5301 132.491 75.75
      vertex -72.75 130.75 75.75
      vertex -72.6948 131.627 75.75
    endloop
  endfacet
  facet normal 0 0 -1
    outer loop
      vertex -14.5 118.639 75.75
      vertex -17.5 105.6 75.75
      vertex -16.3122 117.857 75.75
    endloop
  endfacet
  facet normal 0 0 -1
    outer loop
      vertex -17.5 105.6 75.75
      vertex -18.2558 117.514 75.75
      vertex -16.3122 117.857 75.75
    endloop
  endfacet
  facet normal 0 0 -1
    outer loop
      vertex -17.5 105.6 75.75
      vertex -20.226 117.629 75.75
      vertex -18.2558 117.514 75.75
    endloop
  endfacet
  facet normal 0 0 -1
    outer loop
      vertex -17.5 105.6 75.75
      vertex -22.1167 118.195 75.75
      vertex -20.226 117.629 75.75
    endloop
  endfacet
  facet normal 0 0 -1
    outer loop
      vertex -17.5 105.6 75.75
      vertex -23.8258 119.182 75.75
      vertex -22.1167 118.195 75.75
    endloop
  endfacet
  facet normal 0 0 -1
    outer loop
      vertex -47.708 119.855 75.75
      vertex -23.8258 119.182 75.75
      vertex -17.5 105.6 75.75
    endloop
  endfacet
  facet normal 0 0 -1
    outer loop
      vertex -23.8258 119.182 75.75
      vertex -47.708 119.855 75.75
      vertex -25.2614 120.536 75.75
    endloop
  endfacet
  facet normal 0 0 -1
    outer loop
      vertex -46.6418 123.486 75.75
      vertex -27.0209 124.04 75.75
      vertex -46.6418 121.514 75.75
    endloop
  endfacet
  facet normal -0 0 -1
    outer loop
      vertex -26.3459 122.185 75.75
      vertex -46.6418 121.514 75.75
      vertex -27.0209 124.04 75.75
    endloop
  endfacet
  facet normal 0 -0 -1
    outer loop
      vertex -46.6418 121.514 75.75
      vertex -25.2614 120.536 75.75
      vertex -47.708 119.855 75.75
    endloop
  endfacet
  facet normal 0 0 -1
    outer loop
      vertex -25.2614 120.536 75.75
      vertex -46.6418 121.514 75.75
      vertex -26.3459 122.185 75.75
    endloop
  endfacet
  facet normal 0 0 -1
    outer loop
      vertex -58 105.6 75.75
      vertex -47.708 119.855 75.75
      vertex -17.5 105.6 75.75
    endloop
  endfacet
  facet normal 0 0 -1
    outer loop
      vertex -47.708 119.855 75.75
      vertex -58 105.6 75.75
      vertex -49.5019 119.036 75.75
    endloop
  endfacet
  facet normal 0 0 -1
    outer loop
      vertex -72.75 130.75 75.75
      vertex -52.9444 120.608 75.75
      vertex -58 105.6 75.75
    endloop
  endfacet
  facet normal -0 0 -1
    outer loop
      vertex -51.454 119.316 75.75
      vertex -58 105.6 75.75
      vertex -52.9444 120.608 75.75
    endloop
  endfacet
  facet normal -0 0 -1
    outer loop
      vertex -49.5019 119.036 75.75
      vertex -58 105.6 75.75
      vertex -51.454 119.316 75.75
    endloop
  endfacet
  facet normal -1 0 0
    outer loop
      vertex -17.5 8.1 75.75
      vertex -17.5 105.6 77.75
      vertex -17.5 105.6 75.75
    endloop
  endfacet
  facet normal -1 -0 0
    outer loop
      vertex -17.5 105.6 77.75
      vertex -17.5 8.1 75.75
      vertex -17.5 8.1 77.75
    endloop
  endfacet
  facet normal 1 -0 0
    outer loop
      vertex -58 8.1 77.75
      vertex -58 105.6 75.75
      vertex -58 105.6 77.75
    endloop
  endfacet
  facet normal 1 0 0
    outer loop
      vertex -58 105.6 75.75
      vertex -58 8.1 77.75
      vertex -58 8.1 75.75
    endloop
  endfacet
  facet normal 0 1 -0
    outer loop
      vertex -17.5 8.1 75.75
      vertex -58 8.1 77.75
      vertex -17.5 8.1 77.75
    endloop
  endfacet
  facet normal 0 1 0
    outer loop
      vertex -58 8.1 77.75
      vertex -17.5 8.1 75.75
      vertex -58 8.1 75.75
    endloop
  endfacet
  facet normal 0 -1 0
    outer loop
      vertex -58 105.6 75.75
      vertex -17.5 105.6 77.75
      vertex -58 105.6 77.75
    endloop
  endfacet
  facet normal 0 -1 -0
    outer loop
      vertex -17.5 105.6 77.75
      vertex -58 105.6 75.75
      vertex -17.5 105.6 75.75
    endloop
  endfacet
  facet normal 0.993238 0.116094 0
    outer loop
      vertex -27.0209 124.04 77.75
      vertex -27.25 126 75.75
      vertex -27.25 126 77.75
    endloop
  endfacet
  facet normal 0.993238 0.116094 0
    outer loop
      vertex -27.25 126 75.75
      vertex -27.0209 124.04 77.75
      vertex -27.0209 124.04 75.75
    endloop
  endfacet
  facet normal -1 0 0
    outer loop
      vertex -10.3075 125.013 75.75
      vertex -10.3075 126.987 77.75
      vertex -10.3075 126.987 75.75
    endloop
  endfacet
  facet normal -1 -0 0
    outer loop
      vertex -10.3075 126.987 77.75
      vertex -10.3075 125.013 75.75
      vertex -10.3075 125.013 77.75
    endloop
  endfacet
  facet normal 0.993238 -0.116094 0
    outer loop
      vertex -27.25 126 77.75
      vertex -27.0209 127.96 75.75
      vertex -27.0209 127.96 77.75
    endloop
  endfacet
  facet normal 0.993238 -0.116094 0
    outer loop
      vertex -27.0209 127.96 75.75
      vertex -27.25 126 77.75
      vertex -27.25 126 75.75
    endloop
  endfacet
  facet normal 0.500001 0.866025 -0
    outer loop
      vertex -22.1167 118.195 75.75
      vertex -23.8258 119.182 77.75
      vertex -22.1167 118.195 77.75
    endloop
  endfacet
  facet normal 0.500001 0.866025 0
    outer loop
      vertex -23.8258 119.182 77.75
      vertex -22.1167 118.195 75.75
      vertex -23.8258 119.182 75.75
    endloop
  endfacet
  facet normal -0.597157 0.802124 0
    outer loop
      vertex -12.9169 119.817 75.75
      vertex -14.5 118.639 77.75
      vertex -12.9169 119.817 77.75
    endloop
  endfacet
  facet normal -0.597157 0.802124 0
    outer loop
      vertex -14.5 118.639 77.75
      vertex -12.9169 119.817 75.75
      vertex -14.5 118.639 75.75
    endloop
  endfacet
  facet normal -0.973045 0.230616 0
    outer loop
      vertex -10.7626 123.093 75.75
      vertex -10.3075 125.013 77.75
      vertex -10.3075 125.013 75.75
    endloop
  endfacet
  facet normal -0.973045 0.230616 0
    outer loop
      vertex -10.3075 125.013 77.75
      vertex -10.7626 123.093 75.75
      vertex -10.7626 123.093 77.75
    endloop
  endfacet
  facet normal -0.766044 0.642788 0
    outer loop
      vertex -12.9169 119.817 75.75
      vertex -11.6484 121.329 77.75
      vertex -11.6484 121.329 75.75
    endloop
  endfacet
  facet normal -0.766044 0.642788 0
    outer loop
      vertex -11.6484 121.329 77.75
      vertex -12.9169 119.817 75.75
      vertex -12.9169 119.817 77.75
    endloop
  endfacet
  facet normal 0.686242 -0.727373 0
    outer loop
      vertex -25.2614 131.464 75.75
      vertex -23.8258 132.818 77.75
      vertex -25.2614 131.464 77.75
    endloop
  endfacet
  facet normal 0.686242 -0.727373 0
    outer loop
      vertex -23.8258 132.818 77.75
      vertex -25.2614 131.464 75.75
      vertex -23.8258 132.818 75.75
    endloop
  endfacet
  facet normal -0.893633 -0.448799 0
    outer loop
      vertex -10.7626 128.907 75.75
      vertex -11.6484 130.671 77.75
      vertex -11.6484 130.671 75.75
    endloop
  endfacet
  facet normal -0.893633 -0.448799 0
    outer loop
      vertex -11.6484 130.671 77.75
      vertex -10.7626 128.907 75.75
      vertex -10.7626 128.907 77.75
    endloop
  endfacet
  facet normal 0.835487 0.54951 0
    outer loop
      vertex -25.2614 120.536 77.75
      vertex -26.3459 122.185 75.75
      vertex -26.3459 122.185 77.75
    endloop
  endfacet
  facet normal 0.835487 0.54951 0
    outer loop
      vertex -26.3459 122.185 75.75
      vertex -25.2614 120.536 77.75
      vertex -25.2614 120.536 75.75
    endloop
  endfacet
  facet normal 0.939693 0.342019 0
    outer loop
      vertex -26.3459 122.185 77.75
      vertex -27.0209 124.04 75.75
      vertex -27.0209 124.04 77.75
    endloop
  endfacet
  facet normal 0.939693 0.342019 0
    outer loop
      vertex -27.0209 124.04 75.75
      vertex -26.3459 122.185 77.75
      vertex -26.3459 122.185 75.75
    endloop
  endfacet
  facet normal 0.686242 0.727373 -0
    outer loop
      vertex -23.8258 119.182 75.75
      vertex -25.2614 120.536 77.75
      vertex -23.8258 119.182 77.75
    endloop
  endfacet
  facet normal 0.686242 0.727373 0
    outer loop
      vertex -25.2614 120.536 77.75
      vertex -23.8258 119.182 75.75
      vertex -25.2614 120.536 75.75
    endloop
  endfacet
  facet normal -0.173646 0.984808 0
    outer loop
      vertex -16.3122 117.857 75.75
      vertex -18.2558 117.514 77.75
      vertex -16.3122 117.857 77.75
    endloop
  endfacet
  facet normal -0.173646 0.984808 0
    outer loop
      vertex -18.2558 117.514 77.75
      vertex -16.3122 117.857 75.75
      vertex -18.2558 117.514 75.75
    endloop
  endfacet
  facet normal -0.893633 0.448799 0
    outer loop
      vertex -11.6484 121.329 75.75
      vertex -10.7626 123.093 77.75
      vertex -10.7626 123.093 75.75
    endloop
  endfacet
  facet normal -0.893633 0.448799 0
    outer loop
      vertex -10.7626 123.093 77.75
      vertex -11.6484 121.329 75.75
      vertex -11.6484 121.329 77.75
    endloop
  endfacet
  facet normal 0.286801 -0.95799 0
    outer loop
      vertex -22.1167 133.805 75.75
      vertex -20.226 134.371 77.75
      vertex -22.1167 133.805 77.75
    endloop
  endfacet
  facet normal 0.286801 -0.95799 0
    outer loop
      vertex -20.226 134.371 77.75
      vertex -22.1167 133.805 75.75
      vertex -20.226 134.371 75.75
    endloop
  endfacet
  facet normal 0.835489 -0.549507 0
    outer loop
      vertex -26.3459 129.815 77.75
      vertex -25.2614 131.464 75.75
      vertex -25.2614 131.464 77.75
    endloop
  endfacet
  facet normal 0.835489 -0.549507 0
    outer loop
      vertex -25.2614 131.464 75.75
      vertex -26.3459 129.815 77.75
      vertex -26.3459 129.815 75.75
    endloop
  endfacet
  facet normal 0.499998 -0.866026 0
    outer loop
      vertex -23.8258 132.818 75.75
      vertex -22.1167 133.805 77.75
      vertex -23.8258 132.818 77.75
    endloop
  endfacet
  facet normal 0.499998 -0.866026 0
    outer loop
      vertex -22.1167 133.805 77.75
      vertex -23.8258 132.818 75.75
      vertex -22.1167 133.805 75.75
    endloop
  endfacet
  facet normal 0.0581488 -0.998308 0
    outer loop
      vertex -20.226 134.371 75.75
      vertex -18.2558 134.486 77.75
      vertex -20.226 134.371 77.75
    endloop
  endfacet
  facet normal 0.0581488 -0.998308 0
    outer loop
      vertex -18.2558 134.486 77.75
      vertex -20.226 134.371 75.75
      vertex -18.2558 134.486 75.75
    endloop
  endfacet
  facet normal -0.396079 -0.918217 0
    outer loop
      vertex -16.3122 134.143 75.75
      vertex -14.5 133.361 77.75
      vertex -16.3122 134.143 77.75
    endloop
  endfacet
  facet normal -0.396079 -0.918217 -0
    outer loop
      vertex -14.5 133.361 77.75
      vertex -16.3122 134.143 75.75
      vertex -14.5 133.361 75.75
    endloop
  endfacet
  facet normal -0.59716 -0.802122 0
    outer loop
      vertex -14.5 133.361 75.75
      vertex -12.9169 132.183 77.75
      vertex -14.5 133.361 77.75
    endloop
  endfacet
  facet normal -0.59716 -0.802122 -0
    outer loop
      vertex -12.9169 132.183 77.75
      vertex -14.5 133.361 75.75
      vertex -12.9169 132.183 75.75
    endloop
  endfacet
  facet normal 0.286801 0.95799 -0
    outer loop
      vertex -20.226 117.629 75.75
      vertex -22.1167 118.195 77.75
      vertex -20.226 117.629 77.75
    endloop
  endfacet
  facet normal 0.286801 0.95799 0
    outer loop
      vertex -22.1167 118.195 77.75
      vertex -20.226 117.629 75.75
      vertex -22.1167 118.195 75.75
    endloop
  endfacet
  facet normal 0.0581449 0.998308 -0
    outer loop
      vertex -18.2558 117.514 75.75
      vertex -20.226 117.629 77.75
      vertex -18.2558 117.514 77.75
    endloop
  endfacet
  facet normal 0.0581449 0.998308 0
    outer loop
      vertex -20.226 117.629 77.75
      vertex -18.2558 117.514 75.75
      vertex -20.226 117.629 75.75
    endloop
  endfacet
  facet normal -0.396082 0.918215 0
    outer loop
      vertex -14.5 118.639 75.75
      vertex -16.3122 117.857 77.75
      vertex -14.5 118.639 77.75
    endloop
  endfacet
  facet normal -0.396082 0.918215 0
    outer loop
      vertex -16.3122 117.857 77.75
      vertex -14.5 118.639 75.75
      vertex -16.3122 117.857 75.75
    endloop
  endfacet
  facet normal 0.939692 -0.342021 0
    outer loop
      vertex -27.0209 127.96 77.75
      vertex -26.3459 129.815 75.75
      vertex -26.3459 129.815 77.75
    endloop
  endfacet
  facet normal 0.939692 -0.342021 0
    outer loop
      vertex -26.3459 129.815 75.75
      vertex -27.0209 127.96 77.75
      vertex -27.0209 127.96 75.75
    endloop
  endfacet
  facet normal -0.17365 -0.984807 0
    outer loop
      vertex -18.2558 134.486 75.75
      vertex -16.3122 134.143 77.75
      vertex -18.2558 134.486 77.75
    endloop
  endfacet
  facet normal -0.17365 -0.984807 -0
    outer loop
      vertex -16.3122 134.143 77.75
      vertex -18.2558 134.486 75.75
      vertex -16.3122 134.143 75.75
    endloop
  endfacet
  facet normal -0.973045 -0.230617 0
    outer loop
      vertex -10.3075 126.987 75.75
      vertex -10.7626 128.907 77.75
      vertex -10.7626 128.907 75.75
    endloop
  endfacet
  facet normal -0.973045 -0.230617 0
    outer loop
      vertex -10.7626 128.907 77.75
      vertex -10.3075 126.987 75.75
      vertex -10.3075 126.987 77.75
    endloop
  endfacet
  facet normal -0.766046 -0.642786 0
    outer loop
      vertex -11.6484 130.671 75.75
      vertex -12.9169 132.183 77.75
      vertex -12.9169 132.183 75.75
    endloop
  endfacet
  facet normal -0.766046 -0.642786 0
    outer loop
      vertex -12.9169 132.183 77.75
      vertex -11.6484 130.671 75.75
      vertex -11.6484 130.671 77.75
    endloop
  endfacet
  facet normal 0.959493 0.281733 0
    outer loop
      vertex -52.9444 120.608 77.75
      vertex -53.5 122.5 75.75
      vertex -53.5 122.5 77.75
    endloop
  endfacet
  facet normal 0.959493 0.281733 0
    outer loop
      vertex -53.5 122.5 75.75
      vertex -52.9444 120.608 77.75
      vertex -52.9444 120.608 75.75
    endloop
  endfacet
  facet normal 0.65486 0.75575 -0
    outer loop
      vertex -51.454 119.316 75.75
      vertex -52.9444 120.608 77.75
      vertex -51.454 119.316 77.75
    endloop
  endfacet
  facet normal 0.65486 0.75575 0
    outer loop
      vertex -52.9444 120.608 77.75
      vertex -51.454 119.316 75.75
      vertex -52.9444 120.608 75.75
    endloop
  endfacet
  facet normal -1 0 0
    outer loop
      vertex -46.6418 121.514 75.75
      vertex -46.6418 123.486 77.75
      vertex -46.6418 123.486 75.75
    endloop
  endfacet
  facet normal -1 -0 0
    outer loop
      vertex -46.6418 123.486 77.75
      vertex -46.6418 121.514 75.75
      vertex -46.6418 121.514 77.75
    endloop
  endfacet
  facet normal -0.415415 0.909632 0
    outer loop
      vertex -47.708 119.855 75.75
      vertex -49.5019 119.036 77.75
      vertex -47.708 119.855 77.75
    endloop
  endfacet
  facet normal -0.415415 0.909632 0
    outer loop
      vertex -49.5019 119.036 77.75
      vertex -47.708 119.855 75.75
      vertex -49.5019 119.036 75.75
    endloop
  endfacet
  facet normal 0.65486 -0.75575 0
    outer loop
      vertex -52.9444 124.392 75.75
      vertex -51.454 125.684 77.75
      vertex -52.9444 124.392 77.75
    endloop
  endfacet
  facet normal 0.65486 -0.75575 0
    outer loop
      vertex -51.454 125.684 77.75
      vertex -52.9444 124.392 75.75
      vertex -51.454 125.684 75.75
    endloop
  endfacet
  facet normal -0.841255 0.540639 0
    outer loop
      vertex -47.708 119.855 75.75
      vertex -46.6418 121.514 77.75
      vertex -46.6418 121.514 75.75
    endloop
  endfacet
  facet normal -0.841255 0.540639 0
    outer loop
      vertex -46.6418 121.514 77.75
      vertex -47.708 119.855 75.75
      vertex -47.708 119.855 77.75
    endloop
  endfacet
  facet normal 0.142318 0.989821 -0
    outer loop
      vertex -49.5019 119.036 75.75
      vertex -51.454 119.316 77.75
      vertex -49.5019 119.036 77.75
    endloop
  endfacet
  facet normal 0.142318 0.989821 0
    outer loop
      vertex -51.454 119.316 77.75
      vertex -49.5019 119.036 75.75
      vertex -51.454 119.316 75.75
    endloop
  endfacet
  facet normal 0.959493 -0.281733 0
    outer loop
      vertex -53.5 122.5 77.75
      vertex -52.9444 124.392 75.75
      vertex -52.9444 124.392 77.75
    endloop
  endfacet
  facet normal 0.959493 -0.281733 0
    outer loop
      vertex -52.9444 124.392 75.75
      vertex -53.5 122.5 77.75
      vertex -53.5 122.5 75.75
    endloop
  endfacet
  facet normal -0.841255 -0.540639 0
    outer loop
      vertex -46.6418 123.486 75.75
      vertex -47.708 125.145 77.75
      vertex -47.708 125.145 75.75
    endloop
  endfacet
  facet normal -0.841255 -0.540639 0
    outer loop
      vertex -47.708 125.145 77.75
      vertex -46.6418 123.486 75.75
      vertex -46.6418 123.486 77.75
    endloop
  endfacet
  facet normal 0.142318 -0.989821 0
    outer loop
      vertex -51.454 125.684 75.75
      vertex -49.5019 125.964 77.75
      vertex -51.454 125.684 77.75
    endloop
  endfacet
  facet normal 0.142318 -0.989821 0
    outer loop
      vertex -49.5019 125.964 77.75
      vertex -51.454 125.684 75.75
      vertex -49.5019 125.964 75.75
    endloop
  endfacet
  facet normal -0.415415 -0.909632 0
    outer loop
      vertex -49.5019 125.964 75.75
      vertex -47.708 125.145 77.75
      vertex -49.5019 125.964 77.75
    endloop
  endfacet
  facet normal -0.415415 -0.909632 -0
    outer loop
      vertex -47.708 125.145 77.75
      vertex -49.5019 125.964 75.75
      vertex -47.708 125.145 75.75
    endloop
  endfacet
endsolid OpenSCAD_Model
